<svg version="1.1" id="Layer_1" xmlns="http://www.w3.org/2000/svg" xmlns:xlink="http://www.w3.org/1999/xlink" x="0px" y="0px"
	 width="100%" viewBox="0 0 3000 2400" enable-background="new 0 0 3000 2400" xml:space="preserve">
<path fill="#000000" opacity="1.000000" stroke="none" 
	d="
M1810.000000,2402.000000 
	C1206.666626,2402.000000 604.333313,2402.000000 2.000000,2402.000000 
	C2.000000,1602.000000 2.000000,802.000000 2.000000,2.000000 
	C1002.000000,2.000000 2002.000000,2.000000 3002.000000,2.000000 
	C3002.000000,802.000000 3002.000000,1602.000000 3002.000000,2402.000000 
	C2605.000000,2402.000000 2208.000000,2402.000000 1810.000000,2402.000000 
M2219.562012,714.296997 
	C2219.562012,714.296997 2219.122314,714.254211 2219.228516,713.472351 
	C2219.056885,712.943237 2218.718994,712.560913 2218.155273,710.766174 
	C2218.032959,710.260559 2217.910889,709.755005 2217.681152,707.880981 
	C2215.093018,706.173279 2217.049561,700.620422 2212.036377,699.773254 
	C2208.993408,695.149902 2206.042969,690.462463 2202.891113,685.914551 
	C2190.365234,667.839966 2176.010986,651.292725 2160.222656,636.030457 
	C2156.001465,631.949951 2150.839844,628.830566 2146.049316,625.353516 
	C2133.980225,616.593079 2122.010010,607.654358 2107.804932,601.131165 
	C2103.772949,599.230103 2099.740967,597.329102 2094.563965,594.685730 
	C2092.936035,594.352966 2091.245361,594.199768 2089.689941,593.658875 
	C2078.322021,589.705200 2066.921631,585.833496 2055.652832,581.611389 
	C2047.972900,578.733826 2040.196167,577.238647 2032.033691,576.027527 
	C2018.751221,574.056641 2005.811157,569.764954 1991.744263,569.104980 
	C1988.518188,568.502930 1985.294800,567.394592 1982.065674,567.377625 
	C1951.482666,567.217407 1920.896973,567.014221 1890.315796,567.274353 
	C1854.117432,567.582275 1817.922241,568.310181 1781.727295,568.946472 
	C1778.901245,568.996155 1776.087891,569.755859 1771.633789,570.191650 
	C1770.550049,570.306152 1769.466187,570.420654 1766.496704,570.031738 
	C1750.022217,570.026855 1733.546753,569.934143 1717.074341,570.118958 
	C1714.799683,570.144470 1712.540283,571.544495 1709.000366,573.158936 
	C1705.385742,573.449707 1701.771240,573.740417 1696.280029,573.685547 
	C1686.146118,573.653137 1676.008179,573.452820 1665.881348,573.704224 
	C1663.292603,573.768555 1660.739380,575.262268 1656.463257,575.938232 
	C1648.607422,576.418030 1640.751465,576.897827 1631.949585,577.435425 
	C1631.527832,589.065674 1631.504639,601.091064 1631.992432,613.762146 
	C1638.897095,613.762146 1644.505859,613.762146 1650.274170,615.114624 
	C1653.467163,616.625916 1656.660278,618.137207 1661.190430,619.887329 
	C1661.641479,619.926270 1662.092651,619.965210 1662.968628,620.744995 
	C1663.241821,621.282715 1663.661621,621.655457 1664.048950,621.838562 
	C1664.048950,621.838562 1664.196167,621.733582 1664.272583,623.003418 
	C1665.545044,623.984253 1666.817627,624.965088 1667.997803,625.996094 
	C1667.997803,625.996094 1668.059937,625.910950 1668.209229,627.140381 
	C1669.519165,628.082458 1670.829224,629.024536 1672.366333,631.468872 
	C1677.006104,640.088074 1678.084473,649.277161 1678.050415,659.014893 
	C1677.823364,723.977051 1677.932495,788.940308 1677.932495,853.903259 
	C1677.932495,1063.450439 1677.939087,1272.997559 1677.912231,1482.544678 
	C1677.911011,1492.336914 1678.318115,1501.825684 1672.729126,1511.125610 
	C1666.547241,1521.412354 1657.054810,1525.982300 1647.087891,1530.233887 
	C1642.439941,1532.216309 1637.079224,1532.528442 1631.702148,1533.669678 
	C1631.702148,1543.289429 1631.813721,1551.930664 1631.655884,1560.566772 
	C1631.575317,1564.979370 1633.580078,1566.597534 1639.100830,1567.049927 
	C1644.659790,1567.152710 1650.218628,1567.255493 1657.456543,1567.749023 
	C1659.736694,1567.882812 1662.016724,1568.016602 1665.126465,1569.618530 
	C1681.064209,1569.686646 1697.001831,1569.754761 1714.612061,1570.405273 
	C1727.564087,1570.826172 1740.515381,1571.271240 1753.468262,1571.663330 
	C1786.976929,1572.677124 1820.528931,1569.838013 1854.034424,1573.511719 
	C1868.507568,1575.098633 1883.198730,1574.635498 1897.783203,1575.279297 
	C1930.013306,1576.701782 1962.031006,1573.627563 1994.066528,1570.893066 
	C1996.033691,1570.725220 1997.973145,1570.232788 2001.647095,1570.036133 
	C2005.894653,1569.459839 2010.142334,1568.883423 2016.048828,1568.100098 
	C2024.439819,1566.520508 2033.095703,1565.764893 2041.160645,1563.171387 
	C2053.791992,1559.109619 2065.949463,1553.616577 2078.908691,1550.421509 
	C2081.376465,1549.812988 2083.548340,1547.999512 2085.852539,1546.734375 
	C2088.152344,1545.471680 2090.376953,1544.046875 2092.756104,1542.958252 
	C2101.920654,1538.764404 2110.874268,1534.724731 2119.313477,1528.623047 
	C2139.309326,1514.166260 2159.125977,1499.751343 2174.695557,1480.369629 
	C2181.897705,1471.404297 2189.277100,1462.469604 2195.405762,1452.780640 
	C2204.091064,1439.049072 2212.160889,1424.871094 2219.547363,1410.400879 
	C2222.819336,1403.991455 2227.433350,1397.928467 2229.527100,1389.877197 
	C2231.295654,1385.934937 2234.949951,1382.642944 2234.620361,1376.621582 
	C2236.643311,1370.817871 2238.994629,1365.105103 2240.628906,1359.193970 
	C2246.036133,1339.639648 2253.312744,1320.589355 2256.318848,1300.375854 
	C2257.088623,1295.199463 2258.848389,1290.170288 2261.288818,1284.354736 
	C2262.014404,1278.606201 2262.739990,1272.857788 2263.686523,1267.138550 
	C2263.686523,1267.138550 2263.855469,1266.993774 2265.295410,1265.961792 
	C2265.419434,1261.395630 2265.543457,1256.829590 2266.133057,1251.703247 
	C2266.133057,1251.703247 2266.375244,1251.016235 2267.336426,1250.646606 
	C2267.541504,1250.371338 2267.746582,1250.095947 2268.554199,1249.461426 
	C2268.623047,1249.235474 2268.787842,1248.987305 2268.741455,1248.787964 
	C2268.638428,1248.342529 2268.430176,1247.921387 2268.510498,1245.917603 
	C2268.419189,1243.272705 2268.327881,1240.627930 2268.402832,1236.955200 
	C2268.288330,1236.627441 2268.174072,1236.299805 2267.968018,1235.983154 
	C2267.968018,1235.983154 2267.978760,1236.074951 2269.501465,1235.563354 
	C2270.280762,1233.889404 2271.701904,1232.225342 2271.727783,1230.540039 
	C2271.833496,1223.633911 2271.513428,1216.721191 2271.708008,1208.767090 
	C2271.821289,1208.417236 2271.934570,1208.067383 2273.480957,1206.885864 
	C2273.603760,1199.873657 2273.726562,1192.861450 2274.245361,1184.242920 
	C2275.601807,1169.443848 2278.010986,1154.652954 2278.128418,1139.844116 
	C2278.585449,1082.205200 2278.520752,1024.559204 2278.176758,966.918640 
	C2278.086182,951.754517 2276.316895,936.598938 2275.239746,921.444946 
	C2275.148193,920.157043 2274.456787,918.911804 2274.371094,915.914124 
	C2274.341553,910.804504 2274.499756,905.682739 2274.170166,900.592590 
	C2274.068604,899.024414 2272.634766,897.542542 2271.915527,896.036194 
	C2271.915527,896.036194 2271.927490,896.140991 2271.903320,894.306091 
	C2271.055176,887.324585 2274.076416,879.991089 2269.825439,872.411621 
	C2269.281738,871.700806 2268.738281,870.989990 2268.419678,868.515015 
	C2267.916504,864.653809 2270.571533,860.158752 2266.013916,856.354004 
	C2265.810547,855.901550 2265.632080,855.439514 2265.991699,853.088989 
	C2266.011230,850.573730 2266.443115,847.963257 2265.892090,845.579956 
	C2265.575195,844.208374 2263.667725,843.204468 2262.665039,840.478821 
	C2262.869141,835.744202 2263.799316,830.849304 2258.959717,826.191101 
	C2258.689453,825.921082 2258.418945,825.651062 2258.450928,823.951599 
	C2258.612793,819.657104 2259.598145,815.191956 2256.210205,810.076538 
	C2254.174561,803.367554 2252.175781,796.647034 2250.094482,789.952271 
	C2247.085205,780.273254 2244.302979,770.510071 2240.883545,760.976685 
	C2238.079590,753.159668 2234.486816,745.625732 2231.162842,736.658630 
	C2230.077148,734.449768 2228.991455,732.240906 2228.002441,730.007507 
	C2228.002441,730.007507 2227.925537,730.072205 2228.047119,728.665833 
	C2225.977539,725.665771 2223.908203,722.665710 2221.647949,717.416809 
	C2221.521484,716.675232 2221.395020,715.933655 2221.143799,714.557068 
	C2220.734619,714.236145 2220.325195,714.237671 2219.562012,714.296997 
M919.976990,489.970886 
	C919.976990,489.970886 919.952271,490.016541 921.538330,490.122620 
	C923.860596,489.332153 926.182800,488.541718 929.130920,487.221466 
	C929.794922,486.741425 930.458923,486.261414 932.853394,486.381042 
	C936.734131,486.064148 941.143005,488.232849 944.737549,483.854675 
	C944.737549,483.854675 945.244812,483.607697 947.232544,483.945587 
	C948.564392,483.988342 949.896179,484.068787 951.228027,484.068451 
	C1092.196655,484.034119 1233.165405,483.991425 1374.134033,483.967926 
	C1377.302612,483.967407 1380.471191,484.180603 1383.986572,484.306519 
	C1383.986572,489.903809 1383.986450,494.220215 1383.986450,498.536591 
	C1383.986450,882.785828 1383.984863,1267.035034 1384.008911,1651.284302 
	C1384.009155,1655.598755 1384.346313,1659.913330 1383.931885,1665.665161 
	C1381.494629,1672.341919 1379.545410,1679.249023 1376.524536,1685.650391 
	C1368.805908,1702.006104 1356.254395,1711.156006 1337.478271,1710.232422 
	C1336.278320,1710.173340 1335.046875,1710.752686 1333.817871,1711.038086 
	C1331.822144,1720.281494 1329.926758,1729.059937 1327.716431,1739.296997 
	C1331.693848,1740.084229 1335.351074,1741.435547 1339.010254,1741.440430 
	C1427.322388,1741.558350 1515.634766,1741.554199 1603.946899,1741.458008 
	C1607.729614,1741.453979 1611.510864,1740.359375 1616.830078,1739.534424 
	C1614.159180,1728.931152 1611.813354,1719.618042 1609.447144,1710.223999 
	C1606.515015,1710.223999 1604.211914,1710.260010 1601.910156,1710.217773 
	C1591.636475,1710.029297 1583.017822,1706.225464 1575.783813,1698.841797 
	C1565.170410,1688.009155 1560.487915,1674.484985 1560.480225,1660.012939 
	C1560.271240,1271.105591 1560.313232,882.198181 1560.322632,493.290741 
	C1560.322754,490.294617 1560.455444,487.298462 1562.312866,484.140961 
	C1564.643188,484.091003 1566.973633,483.997498 1569.303955,483.997375 
	C1706.881348,483.990936 1844.458618,483.993195 1982.036011,483.989502 
	C1988.696045,483.989319 1995.356079,483.942627 2002.866333,485.128052 
	C2007.955078,486.088806 2013.043945,487.049561 2018.108398,487.879700 
	C2018.108398,487.879700 2017.980347,487.844452 2018.728882,489.201782 
	C2021.816528,489.500214 2024.904297,489.798615 2028.000610,489.996368 
	C2028.000610,489.996368 2027.915405,490.050385 2028.116455,491.472748 
	C2030.715698,492.621796 2033.314819,493.770844 2036.961914,495.696045 
	C2045.889282,499.068329 2050.644043,506.770477 2055.644531,514.073914 
	C2058.902832,518.832886 2061.527100,524.025635 2064.433350,529.020264 
	C2074.091797,526.423767 2082.821045,523.578186 2091.766846,521.859741 
	C2097.114502,520.832520 2098.605957,518.035095 2097.799561,513.595459 
	C2096.577393,506.868561 2094.811035,500.238586 2093.217041,493.581573 
	C2089.459717,477.892120 2085.612061,462.224060 2081.928711,446.517426 
	C2081.026855,442.671661 2080.707764,438.692871 2079.949463,434.808685 
	C2079.389404,431.939850 2080.800537,428.078094 2076.339600,426.983490 
	C2073.961670,415.930573 2071.545654,404.885590 2069.222656,393.821106 
	C2068.206055,388.979889 2067.565186,384.054779 2066.424805,379.245697 
	C2064.472412,371.012115 2061.986328,362.897430 2060.254150,354.621948 
	C2059.057373,348.904083 2058.752197,342.999573 2057.871338,335.713593 
	C2050.702148,336.513947 2043.219727,337.361969 2035.733887,338.179718 
	C2031.795532,338.609924 2027.856689,339.060699 2023.907104,339.352570 
	C2022.310181,339.470551 2019.849121,338.466003 2019.206787,339.207367 
	C2015.149414,343.890076 2009.876343,342.011627 2005.166138,342.012817 
	C1651.258423,342.101471 1297.350830,342.064819 943.443237,342.225647 
	C932.313538,342.230713 921.776001,337.817200 910.600891,339.040314 
	C909.056641,339.209320 907.327209,338.441498 905.794434,337.829590 
	C899.362610,335.262024 892.934204,336.047455 887.208252,337.023224 
	C884.591553,348.614594 882.054932,359.438446 879.734924,370.308563 
	C878.629517,375.487488 878.792175,381.097046 876.867188,385.905823 
	C873.469055,394.394684 875.688049,404.658112 868.518555,411.885712 
	C868.172546,412.234528 868.546936,413.207855 868.373718,413.831421 
	C864.049133,429.404449 867.587830,446.836975 857.253418,461.023041 
	C856.849731,461.577209 857.730530,462.923706 857.554626,463.810059 
	C856.249573,470.384857 854.828308,476.936615 852.265686,484.479736 
	C851.679382,488.520569 851.093018,492.561371 850.209106,498.024902 
	C849.266296,501.798004 848.323486,505.571136 846.299316,510.582520 
	C845.288635,521.008118 845.288635,521.008118 854.022217,521.974854 
	C854.022217,521.974854 853.980835,521.955200 854.142761,523.252563 
	C858.116943,523.485168 862.091064,523.717712 865.999756,523.985352 
	C865.999756,523.985352 866.026001,523.915283 866.372437,525.295593 
	C871.114990,528.422607 874.836304,528.974792 880.517578,526.231079 
	C882.601257,523.067688 884.463684,519.728638 886.810547,516.774292 
	C893.536011,508.307770 899.090027,498.491028 910.740112,495.451782 
	C911.916748,495.144775 912.759460,493.557587 915.267700,492.556335 
	C916.854248,491.690216 918.440735,490.824097 919.976990,489.970886 
M974.744385,1436.070312 
	C974.326599,1436.119263 973.908752,1436.168335 973.267456,1435.959595 
	C973.267456,1435.959595 972.933411,1435.890503 972.333130,1434.461426 
	C966.892029,1432.933105 961.450867,1431.404785 955.996155,1429.996582 
	C955.996155,1429.996582 956.112915,1429.965454 955.605103,1428.695435 
	C951.686035,1426.501831 947.766907,1424.308105 944.002014,1422.018433 
	C944.002014,1422.018433 943.882202,1422.155273 943.721863,1420.918945 
	C941.374390,1418.899414 939.026917,1416.879883 935.471313,1413.883057 
	C931.238098,1407.610229 926.452393,1401.627563 922.955627,1394.968018 
	C920.396057,1390.093506 919.530457,1384.329834 918.220093,1376.937134 
	C918.256531,1374.940430 918.324890,1372.943848 918.324951,1370.947144 
	C918.331482,1132.939453 918.334839,894.931824 918.312805,656.924133 
	C918.312500,653.943054 917.982788,650.961914 918.408081,646.596130 
	C919.148621,635.810913 926.434692,628.936279 933.382385,621.982483 
	C941.189026,614.169189 951.225220,612.754333 962.567322,613.778442 
	C964.798706,602.298767 964.094177,591.416992 963.154907,580.624512 
	C963.017151,579.041809 959.609680,577.151672 957.392883,576.500488 
	C954.938354,575.779663 952.113708,576.310913 949.450195,576.310852 
	C894.514282,576.309265 839.569275,576.847229 784.649048,575.918640 
	C771.483154,575.696045 763.431030,580.369812 757.017151,590.536621 
	C756.840027,590.817383 756.738464,591.149841 756.542053,591.413940 
	C742.503662,610.285034 738.503296,632.400879 735.448853,656.993896 
	C735.387878,659.988586 735.273560,662.983276 735.273438,665.977966 
	C735.264648,908.355469 735.263977,1150.733032 735.273071,1393.110474 
	C735.273193,1396.104492 735.407715,1399.098511 734.629822,1403.483643 
	C734.522156,1407.471558 734.468262,1411.461792 734.294983,1415.446899 
	C733.991943,1422.416382 734.115662,1429.455444 733.115295,1436.327881 
	C732.280762,1442.060913 729.716125,1447.524536 728.618591,1453.242065 
	C727.672852,1458.168823 728.335388,1462.737427 732.205933,1467.028076 
	C746.165466,1482.502563 760.393982,1497.708496 776.918152,1510.453857 
	C790.022278,1520.561157 803.188599,1530.784058 817.320068,1539.310181 
	C832.712219,1548.596924 848.945007,1556.668091 865.376831,1564.001953 
	C880.663940,1570.824829 896.706238,1575.906006 913.425598,1578.404663 
	C916.970764,1578.934570 920.423584,1580.159180 923.879028,1581.196777 
	C930.899658,1583.305420 937.762817,1586.359741 944.930420,1587.451782 
	C954.042297,1588.840210 963.388855,1589.024780 972.639404,1589.100830 
	C997.261658,1589.303467 1021.888550,1589.359009 1046.509888,1589.108643 
	C1065.422119,1588.916382 1084.327148,1588.084106 1103.238892,1587.731934 
	C1107.994995,1587.643188 1112.577026,1584.235229 1117.454590,1587.013916 
	C1127.630005,1582.272705 1138.453369,1585.084961 1148.968262,1584.296631 
	C1150.940430,1584.148804 1152.917358,1583.930420 1154.862549,1583.580444 
	C1164.191772,1581.902344 1173.447021,1579.364136 1182.846558,1578.618530 
	C1203.018799,1577.018555 1223.271362,1576.452881 1243.471436,1575.158325 
	C1246.959106,1574.934692 1250.350464,1573.205811 1255.616333,1572.183716 
	C1261.973999,1571.745361 1268.331665,1571.307007 1276.226685,1570.785278 
	C1278.786133,1570.602539 1281.345459,1570.419800 1285.716187,1570.343018 
	C1289.203613,1570.278198 1292.711426,1570.421753 1296.171631,1570.080566 
	C1298.795410,1569.821777 1301.358154,1568.945557 1305.429321,1567.862427 
	C1309.228638,1566.943481 1314.256226,1566.850464 1314.851440,1562.076538 
	C1316.025513,1552.661133 1317.235840,1543.057251 1313.764282,1533.756348 
	C1311.519897,1533.443115 1309.861206,1532.906494 1308.255249,1533.033936 
	C1289.820312,1534.494995 1267.442017,1512.886841 1267.479736,1490.914551 
	C1267.956787,1212.943970 1267.858887,934.972412 1267.595825,657.001404 
	C1267.583008,643.409851 1271.704590,632.684265 1282.763916,623.582397 
	C1283.837524,622.371277 1284.911011,621.160217 1285.992432,619.987122 
	C1285.992432,619.987122 1285.954712,619.986877 1287.517212,619.922791 
	C1291.777100,618.544373 1296.715942,618.493530 1301.146240,613.817871 
	C1305.108887,613.817871 1309.071411,613.817871 1312.942017,613.817871 
	C1317.644287,605.325989 1315.406494,596.845886 1315.569702,588.724915 
	C1315.767944,578.866333 1312.935547,576.199951 1303.276001,576.373108 
	C1293.989502,576.539612 1284.713989,577.582153 1275.430786,577.627563 
	C1221.113281,577.893188 1166.794434,577.897461 1112.478516,578.313477 
	C1108.942505,578.340515 1104.163330,580.078796 1102.121704,582.701782 
	C1093.393799,593.915161 1089.250610,607.443237 1086.509888,621.076599 
	C1082.898682,639.039673 1083.664917,657.416382 1083.666870,675.677673 
	C1083.690796,897.343262 1083.697021,1119.008789 1083.642456,1340.674438 
	C1083.639404,1352.611450 1083.786255,1364.479492 1081.798218,1376.460571 
	C1080.037720,1387.070923 1075.900635,1396.568848 1070.894897,1405.432617 
	C1063.040771,1419.340332 1049.718140,1427.451172 1035.080811,1433.256226 
	C1032.442261,1434.302490 1029.682373,1435.042480 1025.064941,1435.604980 
	C1019.684082,1436.360718 1014.303162,1437.116455 1008.093689,1437.905151 
	C1007.429382,1438.347290 1006.765076,1438.789307 1004.434387,1439.324097 
	C1001.162842,1439.430176 997.891357,1439.536255 993.741028,1438.301880 
	C987.824158,1437.624634 981.907349,1436.947388 974.744385,1436.070312 
M1762.922729,2159.672852 
	C1771.196411,2159.227539 1779.465820,2158.530029 1787.744629,2158.388916 
	C1805.156616,2158.091553 1822.061768,2154.658447 1838.625732,2149.805176 
	C1855.383301,2144.895264 1870.871338,2137.201660 1882.997681,2124.178223 
	C1897.433350,2108.674561 1902.091675,2089.785156 1901.731689,2069.075928 
	C1901.210571,2039.100342 1887.955811,2017.769531 1860.101440,2005.930420 
	C1857.548828,2004.845703 1855.041870,2003.653931 1851.974609,2002.268433 
	C1857.950317,1998.600342 1863.387573,1996.039551 1867.909668,1992.355347 
	C1890.142090,1974.243286 1894.860840,1953.974609 1888.603394,1925.575317 
	C1884.580811,1907.318604 1873.166626,1894.911255 1856.336060,1887.590210 
	C1848.464111,1884.166138 1840.214600,1881.403076 1831.901978,1879.241211 
	C1813.204102,1874.378540 1793.977539,1872.690796 1774.766479,1872.493408 
	C1750.835327,1872.247437 1726.885254,1873.011475 1702.956055,1873.750244 
	C1690.092896,1874.147339 1677.256104,1875.403809 1664.130859,1876.291138 
	C1664.130859,1879.998291 1664.130859,1882.860352 1664.130859,1885.670776 
	C1676.315186,1886.999146 1679.003052,1894.402222 1679.637695,1903.316528 
	C1679.755737,1904.974731 1679.657349,1906.648193 1679.657349,1908.314697 
	C1679.657471,1980.638184 1679.657593,2052.961670 1679.656860,2125.285156 
	C1679.656860,2127.284912 1679.820557,2129.302490 1679.613403,2131.281006 
	C1678.716064,2139.850098 1675.077515,2143.861816 1666.318848,2146.278320 
	C1665.459961,2146.515137 1664.711548,2147.152588 1664.133057,2147.479492 
	C1664.133057,2150.384033 1664.133057,2152.931885 1664.133057,2155.714600 
	C1696.606445,2159.287354 1728.746216,2160.139893 1762.922729,2159.672852 
M1069.159790,2012.071533 
	C1080.006104,1992.248413 1081.849976,1971.031494 1078.093628,1949.241821 
	C1072.613037,1917.451050 1055.072266,1895.620850 1024.133789,1884.770874 
	C999.058411,1875.977051 973.025513,1873.417725 946.850830,1872.532349 
	C927.949768,1871.893066 908.978760,1873.108643 890.045349,1873.702637 
	C874.118958,1874.202271 858.199768,1874.953369 842.282471,1875.701782 
	C839.065247,1875.853027 835.870789,1876.489502 832.340088,1876.944214 
	C832.514404,1880.270386 832.649902,1882.855835 832.777771,1885.296387 
	C844.824829,1888.449219 848.273193,1892.699097 848.285278,1905.215088 
	C848.356018,1978.534424 848.367676,2051.853760 848.276489,2125.173096 
	C848.259644,2138.703857 845.156799,2142.832275 832.824829,2147.465088 
	C832.824829,2149.912354 832.824829,2152.412598 832.824829,2155.212891 
	C867.863342,2155.212891 902.404907,2155.212891 937.201050,2155.212891 
	C937.201050,2152.219482 937.201050,2149.695068 937.201050,2147.304199 
	C923.728821,2143.527832 921.764099,2141.087158 921.697998,2127.778564 
	C921.620239,2112.114990 921.655945,2096.451172 921.701233,2080.787354 
	C921.709534,2077.911865 921.998718,2075.037354 922.151550,2072.283203 
	C935.036987,2072.283203 947.221313,2072.283203 959.289673,2072.283203 
	C966.197144,2098.193359 972.303284,2123.683594 983.255005,2147.728516 
	C986.123169,2154.025635 989.449707,2155.896973 995.969055,2155.811035 
	C1020.626770,2155.485596 1045.291260,2155.680176 1069.953247,2155.680176 
	C1073.561157,2155.680176 1077.169067,2155.680176 1081.608887,2155.680176 
	C1081.394531,2152.061523 1081.233154,2149.339111 1081.087036,2146.872803 
	C1067.569580,2144.035645 1066.023315,2142.929688 1058.378906,2131.301025 
	C1046.085693,2112.600830 1036.736816,2092.426025 1028.734619,2071.608398 
	C1026.505615,2065.810059 1025.025513,2059.723877 1023.054321,2053.288086 
	C1042.801636,2044.460693 1057.655884,2031.179321 1069.159790,2012.071533 
M1291.403320,2156.454590 
	C1316.685425,2146.810303 1335.706787,2128.980469 1352.420654,2110.714600 
	C1351.406860,2100.762695 1350.050537,2092.276123 1349.786743,2083.756104 
	C1349.366699,2070.189697 1349.676147,2056.600586 1349.674072,2043.021118 
	C1349.667236,1996.724854 1349.574829,1950.428223 1349.786865,1904.132935 
	C1349.807251,1899.690063 1350.689331,1894.562744 1353.066284,1891.026733 
	C1355.141846,1887.938965 1359.890015,1886.647827 1364.292480,1884.074951 
	C1364.140381,1882.208252 1363.915649,1879.451782 1363.696655,1876.764526 
	C1330.287720,1876.764526 1297.735718,1876.764526 1264.935303,1876.764526 
	C1264.935303,1880.007324 1264.935303,1882.796021 1264.935303,1885.433960 
	C1276.243042,1888.240601 1279.601929,1892.033936 1279.617554,1902.677734 
	C1279.698730,1957.974243 1279.810547,2013.271729 1279.546997,2068.567139 
	C1279.480591,2082.495850 1273.043091,2093.355957 1260.410034,2100.017822 
	C1246.989136,2107.095215 1232.842773,2106.481689 1218.996582,2102.450684 
	C1198.849609,2096.585205 1190.367798,2084.482910 1190.354858,2063.591064 
	C1190.322266,2011.292480 1190.323364,1958.993896 1190.357544,1906.695312 
	C1190.366943,1892.259155 1192.860229,1888.871704 1206.226440,1885.122559 
	C1206.099365,1882.465454 1205.965576,1879.669678 1205.824829,1876.726074 
	C1170.892822,1876.726074 1136.681519,1876.726074 1102.127930,1876.726074 
	C1102.127930,1879.991577 1102.127930,1882.853027 1102.127930,1885.635376 
	C1113.825317,1887.619263 1116.416016,1891.646973 1117.618164,1903.262207 
	C1117.856934,1905.569458 1117.655884,1907.922241 1117.655884,1910.254028 
	C1117.656006,1966.216797 1117.726929,2022.179810 1117.572510,2078.142090 
	C1117.551636,2085.730469 1117.582642,2093.666748 1115.462158,2100.810059 
	C1113.040527,2108.967041 1116.129395,2113.596924 1121.312988,2118.958496 
	C1153.893188,2152.656738 1194.668701,2165.701660 1240.205811,2165.387207 
	C1256.981812,2165.271484 1273.947998,2163.147217 1291.403320,2156.454590 
M1565.394165,1873.667236 
	C1562.757812,1873.440430 1560.117798,1873.248291 1557.485596,1872.981323 
	C1538.696411,1871.075562 1519.819702,1867.876831 1501.049072,1871.950439 
	C1454.690674,1882.010864 1419.952026,1907.472290 1399.928223,1951.106812 
	C1388.808105,1975.338989 1385.518799,2000.890015 1387.360352,2027.637939 
	C1389.080444,2052.617920 1394.526001,2076.203369 1406.778931,2097.939209 
	C1424.726440,2129.777100 1450.802979,2151.575684 1486.873901,2160.267578 
	C1503.338379,2164.234619 1519.921631,2165.325439 1536.970337,2164.638428 
	C1561.868774,2163.635498 1585.643066,2158.555420 1608.525879,2149.258545 
	C1617.552734,2145.590820 1626.754272,2141.627686 1633.295044,2135.325928 
	C1631.927856,2129.893555 1629.890869,2125.452148 1629.837769,2120.986816 
	C1629.528931,2095.004639 1629.669189,2069.016846 1629.696899,2043.031128 
	C1629.704834,2035.582031 1632.712158,2029.803345 1640.335571,2028.177124 
	C1646.727173,2026.813599 1646.002930,2023.287109 1645.006226,2018.872925 
	C1610.562256,2018.872925 1576.707031,2018.872925 1542.348755,2018.872925 
	C1542.544067,2021.996460 1542.702881,2024.538086 1542.849976,2026.890747 
	C1554.473022,2029.912842 1557.931396,2032.973633 1558.139648,2042.732788 
	C1558.544067,2061.681885 1558.258179,2080.645508 1558.258179,2100.035889 
	C1543.234741,2105.615234 1528.397217,2107.178955 1513.267578,2102.746826 
	C1494.870728,2097.357910 1482.213989,2084.868896 1474.022827,2068.166992 
	C1461.290405,2042.205566 1459.086792,2014.787109 1465.442993,1986.711670 
	C1470.094116,1966.167603 1482.086548,1951.033081 1499.980957,1940.003662 
	C1516.460815,1929.846313 1534.465088,1928.455811 1552.875854,1929.898438 
	C1573.486450,1931.513428 1591.081421,1938.629517 1599.195801,1960.782959 
	C1603.277100,1959.354614 1606.872803,1958.096313 1611.256226,1956.562256 
	C1603.876709,1928.092529 1596.663330,1900.263428 1589.792236,1873.755249 
	C1581.594604,1873.755249 1574.426880,1873.755249 1565.394165,1873.667236 
M1998.734619,2067.266113 
	C1998.973145,2088.185791 1999.261719,2109.105225 1999.377808,2130.025635 
	C1999.390381,2132.274414 1998.426392,2134.535156 1997.870972,2136.779541 
	C1996.741333,2141.345215 1994.103882,2144.464844 1989.379028,2145.589111 
	C1987.554810,2146.023682 1985.751465,2146.545898 1983.615723,2147.114014 
	C1983.851685,2150.197998 1984.042236,2152.687744 1984.243652,2155.320068 
	C2019.119385,2155.320068 2053.349609,2155.320068 2087.852051,2155.320068 
	C2087.852051,2152.425293 2087.852051,2149.890381 2087.852051,2147.514893 
	C2075.671143,2143.510498 2072.921631,2139.854248 2072.359619,2127.315430 
	C2072.285156,2125.653320 2072.347900,2123.985107 2072.347900,2122.319580 
	C2072.347656,2107.663086 2072.590088,2093.000488 2072.237549,2078.352539 
	C2072.080078,2071.803955 2073.565186,2066.062012 2076.500488,2060.271240 
	C2100.847412,2012.241211 2125.013672,1964.119507 2149.271484,1916.044067 
	C2152.412842,1909.818237 2155.700684,1903.664185 2159.031738,1897.537354 
	C2162.285400,1891.552979 2166.294434,1886.381592 2174.295898,1885.631226 
	C2174.128906,1882.463257 2173.980713,1879.653076 2173.824951,1876.700073 
	C2139.572510,1876.700073 2106.015625,1876.700073 2072.110107,1876.700073 
	C2072.110107,1879.946533 2072.110107,1882.813599 2072.110107,1885.544678 
	C2084.046387,1889.142822 2085.770264,1892.343140 2082.144531,1903.710327 
	C2081.238281,1906.551636 2080.255371,1909.382935 2079.083252,1912.122803 
	C2071.384766,1930.120117 2063.652100,1948.102661 2055.875977,1966.066162 
	C2050.628418,1978.188110 2045.291504,1990.271118 2039.470215,2003.569214 
	C2037.449951,1999.385620 2035.926392,1996.578125 2034.704102,1993.645020 
	C2025.004883,1970.367188 2015.350342,1947.070679 2005.711426,1923.767700 
	C2002.923828,1917.028320 1999.885864,1910.364502 1997.583984,1903.458984 
	C1994.736328,1894.916382 1996.958374,1890.559448 2005.166748,1886.789551 
	C2006.577881,1886.141357 2008.071289,1885.672607 2009.729004,1885.044434 
	C2009.504761,1881.923218 2009.325073,1879.422729 2009.147461,1876.949219 
	C1971.695679,1876.949219 1934.920532,1876.949219 1898.008789,1876.949219 
	C1898.008789,1880.180664 1898.008789,1882.783081 1898.008789,1885.266479 
	C1906.275879,1888.084839 1907.609131,1888.768433 1911.811157,1896.043457 
	C1916.784058,1904.653198 1921.406494,1913.477661 1925.888184,1922.356689 
	C1950.003296,1970.132812 1974.027344,2017.954712 1998.734619,2067.266113 
z"/>
<path fill="#E77501" opacity="1.000000" stroke="none" 
	d="
M2266.375244,1251.016235 
	C2266.375244,1251.016235 2266.133057,1251.703247 2265.298096,1252.509155 
	C2264.260498,1257.874634 2264.057861,1262.434204 2263.855469,1266.993774 
	C2263.855469,1266.993774 2263.686523,1267.138550 2262.821289,1267.504761 
	C2257.739746,1273.226318 2260.889160,1279.353516 2260.153320,1285.073486 
	C2258.848389,1290.170288 2257.088623,1295.199463 2256.318848,1300.375854 
	C2253.312744,1320.589355 2246.036133,1339.639648 2240.628906,1359.193970 
	C2238.994629,1365.105103 2236.643311,1370.817871 2233.606201,1377.573242 
	C2230.703857,1382.310059 2226.972412,1385.408447 2228.187012,1390.349365 
	C2227.433350,1397.928467 2222.819336,1403.991455 2219.547363,1410.400879 
	C2212.160889,1424.871094 2204.091064,1439.049072 2195.405762,1452.780640 
	C2189.277100,1462.469604 2181.897705,1471.404297 2174.695557,1480.369629 
	C2159.125977,1499.751343 2139.309326,1514.166260 2119.313477,1528.623047 
	C2110.874268,1534.724731 2101.920654,1538.764404 2092.756104,1542.958252 
	C2090.376953,1544.046875 2088.152344,1545.471680 2085.852539,1546.734375 
	C2083.548340,1547.999512 2081.376465,1549.812988 2078.908691,1550.421509 
	C2065.949463,1553.616577 2053.791992,1559.109619 2041.160645,1563.171387 
	C2033.095703,1565.764893 2024.439819,1566.520508 2014.361816,1568.094238 
	C2008.425049,1568.689331 2004.175171,1569.290405 1999.925415,1569.891357 
	C1997.973145,1570.232788 1996.033691,1570.725220 1994.066528,1570.893066 
	C1962.031006,1573.627563 1930.013306,1576.701782 1897.783203,1575.279297 
	C1883.198730,1574.635498 1868.507568,1575.098633 1854.034424,1573.511719 
	C1820.528931,1569.838013 1786.976929,1572.677124 1753.468262,1571.663330 
	C1740.515381,1571.271240 1727.564087,1570.826172 1713.081543,1569.499023 
	C1695.799683,1568.445312 1680.048340,1568.297852 1664.296875,1568.150391 
	C1662.016724,1568.016602 1659.736694,1567.882812 1656.020508,1567.039917 
	C1648.967163,1566.263062 1643.349731,1566.195312 1637.732300,1566.127441 
	C1633.580078,1566.597534 1631.575317,1564.979370 1631.655884,1560.566772 
	C1631.813721,1551.930664 1631.702148,1543.289429 1631.702148,1533.669678 
	C1637.079224,1532.528442 1642.439941,1532.216309 1647.087891,1530.233887 
	C1657.054810,1525.982300 1666.547241,1521.412354 1672.729126,1511.125610 
	C1678.318115,1501.825684 1677.911011,1492.336914 1677.912231,1482.544678 
	C1677.939087,1272.997559 1677.932495,1063.450439 1677.932495,853.903259 
	C1677.932495,788.940308 1677.823364,723.977051 1678.050415,659.014893 
	C1678.084473,649.277161 1677.006104,640.088074 1672.235352,630.018799 
	C1670.756104,627.682800 1669.408081,626.796875 1668.059937,625.910950 
	C1668.059937,625.910950 1667.997803,625.996094 1668.184570,625.291443 
	C1666.979736,623.635742 1665.587891,622.684631 1664.196167,621.733582 
	C1664.196167,621.733582 1664.048950,621.838562 1664.010498,621.414307 
	C1663.668335,620.411255 1663.192261,620.082581 1662.543701,620.004089 
	C1662.092651,619.965210 1661.641479,619.926270 1660.447021,619.067627 
	C1658.092896,613.363037 1653.992676,613.800232 1650.114624,613.762146 
	C1644.505859,613.762146 1638.897095,613.762146 1631.992432,613.762146 
	C1631.504639,601.091064 1631.527832,589.065674 1631.949585,577.435425 
	C1640.751465,576.897827 1648.607422,576.418030 1658.238525,576.015564 
	C1669.626099,576.052917 1679.242798,576.165222 1688.848267,575.885620 
	C1691.966431,575.794861 1695.054688,574.678467 1698.156616,574.031189 
	C1701.771240,573.740417 1705.385742,573.449707 1710.553467,572.710144 
	C1727.709229,572.247559 1743.312988,572.324829 1758.913574,572.144043 
	C1762.075684,572.107483 1765.226440,571.096741 1768.382446,570.535156 
	C1769.466187,570.420654 1770.550049,570.306152 1773.264404,570.162903 
	C1791.835571,570.089294 1808.776123,569.997742 1825.716553,570.008057 
	C1881.191895,570.041931 1936.667236,570.112854 1992.142578,570.169556 
	C2005.811157,569.764954 2018.751221,574.056641 2032.033691,576.027527 
	C2040.196167,577.238647 2047.972900,578.733826 2055.652832,581.611389 
	C2066.921631,585.833496 2078.322021,589.705200 2089.689941,593.658875 
	C2091.245361,594.199768 2092.936035,594.352966 2095.326660,595.790283 
	C2099.967529,598.806213 2103.845459,600.717651 2107.723633,602.629150 
	C2122.010010,607.654358 2133.980225,616.593079 2146.049316,625.353516 
	C2150.839844,628.830566 2156.001465,631.949951 2160.222656,636.030457 
	C2176.010986,651.292725 2190.365234,667.839966 2202.891113,685.914551 
	C2206.042969,690.462463 2208.993408,695.149902 2212.087891,700.925049 
	C2214.909912,703.768738 2212.577637,709.479980 2217.788818,709.249512 
	C2217.910889,709.755005 2218.032959,710.260559 2218.164062,711.924072 
	C2218.338379,713.594849 2218.655029,713.985596 2219.122314,714.254211 
	C2219.122314,714.254211 2219.562012,714.296997 2219.905762,714.648315 
	C2220.249756,714.999634 2220.723633,715.283325 2220.723633,715.283325 
	C2220.723633,715.283325 2221.268555,715.192078 2221.268555,715.192078 
	C2221.395020,715.933655 2221.521484,716.675232 2221.749023,719.119873 
	C2223.875244,723.906006 2225.900391,726.989136 2227.925537,730.072266 
	C2227.925537,730.072205 2228.002441,730.007507 2227.834229,730.723389 
	C2228.477783,733.823608 2227.202393,737.351807 2231.243652,737.966309 
	C2234.486816,745.625732 2238.079590,753.159668 2240.883545,760.976685 
	C2244.302979,770.510071 2247.085205,780.273254 2250.094482,789.952271 
	C2252.175781,796.647034 2254.174561,803.367554 2255.543945,811.292114 
	C2255.968018,816.798828 2257.058350,821.089966 2258.148438,825.381104 
	C2258.418945,825.651062 2258.689453,825.921082 2259.446777,827.406860 
	C2260.828857,833.079346 2257.914795,838.199890 2262.552734,842.735352 
	C2263.713867,847.267761 2264.596191,851.117798 2265.478271,854.967896 
	C2265.632080,855.439514 2265.810547,855.901550 2266.014893,857.629211 
	C2266.557129,862.731445 2263.556152,867.236938 2268.194580,870.279175 
	C2268.738281,870.989990 2269.281738,871.700806 2269.668945,873.699951 
	C2269.072510,880.830200 2268.412354,886.670593 2268.374268,892.515076 
	C2268.366211,893.715942 2270.682617,894.931946 2271.927490,896.140991 
	C2271.927490,896.140991 2271.915527,896.036194 2271.860840,896.933228 
	C2271.804199,901.433838 2271.513428,905.067932 2271.889160,908.631714 
	C2272.210205,911.678650 2273.296387,914.644836 2274.044189,917.646729 
	C2274.456787,918.911804 2275.148193,920.157043 2275.239746,921.444946 
	C2276.316895,936.598938 2278.086182,951.754517 2278.176758,966.918640 
	C2278.520752,1024.559204 2278.585449,1082.205200 2278.128418,1139.844116 
	C2278.010986,1154.652954 2275.601807,1169.443848 2273.389160,1185.575439 
	C2272.371094,1193.844482 2272.209473,1200.781006 2272.047852,1207.717529 
	C2271.934570,1208.067383 2271.821289,1208.417236 2270.778809,1209.498535 
	C2269.363525,1215.978882 2268.844727,1221.725220 2268.405518,1227.477783 
	C2268.187500,1230.337769 2268.116211,1233.208862 2267.978760,1236.074951 
	C2267.978760,1236.074951 2267.968018,1235.983154 2267.470215,1236.039917 
	C2266.605225,1236.691162 2266.238281,1237.285645 2265.754883,1238.806396 
	C2265.884033,1243.493774 2266.129639,1247.255005 2266.375244,1251.016235 
M2002.007690,723.985291 
	C2002.007690,723.985291 2002.058594,723.956665 2001.600098,722.614014 
	C1998.905640,721.714783 1996.211304,720.815552 1991.764282,720.011841 
	C1984.522461,719.455688 1977.274170,718.349915 1970.040039,718.436462 
	C1934.473755,718.861877 1898.911133,719.600586 1863.347778,720.260010 
	C1862.726318,720.271545 1862.112183,720.673828 1861.657715,720.835754 
	C1861.657715,954.623596 1861.657715,1188.338501 1861.657715,1422.605225 
	C1864.680908,1422.843872 1867.269531,1423.223145 1869.858643,1423.226074 
	C1904.502686,1423.266357 1939.149658,1423.477905 1973.788208,1423.041260 
	C1979.772705,1422.965820 1985.971558,1420.693970 1991.631714,1418.367065 
	C2001.406372,1414.348511 2011.123901,1410.057129 2021.374146,1404.003052 
	C2027.531494,1400.158081 2032.769531,1395.591431 2034.058228,1388.015015 
	C2034.058228,1388.015015 2033.942871,1388.067749 2034.994141,1387.755249 
	C2035.320557,1387.133301 2035.646973,1386.511353 2035.995850,1386.004028 
	C2035.995850,1386.004028 2035.882935,1385.972778 2037.291626,1385.630493 
	C2041.662598,1383.758911 2042.449219,1380.093994 2042.732422,1374.650269 
	C2043.067871,1374.342163 2043.403320,1374.034058 2044.632568,1373.466309 
	C2045.103760,1372.279175 2045.574829,1371.092041 2046.069824,1370.027710 
	C2046.069824,1370.027710 2045.952637,1370.072388 2047.282104,1369.840088 
	C2050.064941,1367.175049 2052.325684,1364.323730 2050.448242,1358.713501 
	C2052.613281,1355.074463 2054.778320,1351.435425 2057.855957,1347.127197 
	C2058.554199,1345.361572 2059.252197,1343.595947 2060.001953,1341.988159 
	C2060.001953,1341.988159 2059.843262,1342.036743 2061.084229,1341.193970 
	C2062.194092,1336.289307 2063.303711,1331.384766 2065.440186,1325.387695 
	C2066.276611,1322.224731 2067.113281,1319.061890 2069.361084,1315.159180 
	C2069.577148,1311.414795 2069.792969,1307.670532 2070.024170,1304.015625 
	C2070.024170,1304.015625 2069.933594,1304.021973 2071.528564,1304.214233 
	C2072.294189,1300.695312 2073.059814,1297.176514 2073.910889,1293.882080 
	C2073.910889,1293.882080 2073.675049,1293.927612 2075.092529,1293.097046 
	C2075.490479,1288.711548 2075.888672,1284.325928 2077.343994,1278.742065 
	C2078.131592,1269.884155 2078.877686,1261.022095 2079.746094,1252.171997 
	C2079.900146,1250.604248 2080.512207,1249.069580 2081.004150,1247.549194 
	C2081.861328,1244.898560 2083.327148,1242.325317 2083.600586,1239.624756 
	C2085.292236,1222.937378 2085.882080,1206.226074 2088.788574,1189.547974 
	C2090.901611,1177.423340 2091.617432,1164.656738 2092.120117,1152.264404 
	C2093.628418,1115.073853 2093.567139,1077.813477 2093.753174,1040.578613 
	C2093.827881,1025.647339 2092.793213,1010.713745 2092.553223,995.776611 
	C2092.333984,982.134338 2092.516602,968.485779 2092.495850,954.840027 
	C2092.492432,952.513489 2093.036865,949.888733 2092.169434,947.909424 
	C2086.708496,935.447327 2090.399414,921.770020 2086.490479,908.941650 
	C2083.935303,900.554871 2083.351318,891.126038 2084.007324,882.322083 
	C2084.711426,872.871643 2079.084961,865.384155 2078.539795,856.421082 
	C2078.013916,847.774414 2075.755371,839.233276 2074.030273,829.023926 
	C2073.004395,826.125122 2075.980469,821.564514 2069.126709,819.671326 
	C2068.619873,815.991394 2068.112793,812.311462 2067.803223,807.039001 
	C2068.484375,801.421936 2064.562256,797.917480 2061.146484,792.603699 
	C2060.500244,790.731140 2060.041992,788.766357 2059.175781,787.001648 
	C2054.727783,777.938843 2050.174805,768.927368 2045.277222,758.655640 
	C2043.668823,755.513489 2042.818237,751.549255 2038.036499,751.932312 
	C2038.036499,751.932312 2038.082642,751.980713 2037.910522,750.859863 
	C2037.277344,750.551880 2036.644165,750.243896 2036.027588,749.975708 
	C2036.027588,749.975708 2036.064819,749.997864 2036.135498,748.606201 
	C2034.073608,747.065125 2032.011597,745.524048 2030.014160,743.980957 
	C2030.014160,743.980957 2030.018433,744.045044 2029.939331,742.885742 
	C2029.290283,742.580139 2028.641113,742.274597 2028.015381,741.990784 
	C2028.015381,741.990784 2028.032471,742.017517 2028.240967,740.602356 
	C2026.151001,739.077759 2024.060913,737.553162 2022.000000,736.000000 
	C2022.000000,736.000000 2021.972778,736.030273 2022.239014,734.571228 
	C2019.663696,733.611877 2017.088501,732.652527 2013.605591,730.845093 
	C2011.852417,729.791870 2010.099121,728.738647 2008.033081,726.297852 
	C2006.028809,725.507751 2004.024658,724.717651 2002.007690,723.985291 
z"/>
<path fill="#E77501" opacity="1.000000" stroke="none" 
	d="
M913.757202,492.564514 
	C912.759460,493.557587 911.916748,495.144775 910.740112,495.451782 
	C899.090027,498.491028 893.536011,508.307770 886.810547,516.774292 
	C884.463684,519.728638 882.601257,523.067688 879.241211,526.341431 
	C873.985229,525.606201 870.005615,524.760742 866.026001,523.915283 
	C866.026001,523.915283 865.999756,523.985352 865.658325,523.251099 
	C861.538208,522.329651 857.759521,522.142456 853.980835,521.955200 
	C853.980835,521.955200 854.022217,521.974854 854.027161,521.230591 
	C848.422546,518.797424 847.527405,514.294250 847.380676,509.344238 
	C848.323486,505.571136 849.266296,501.798004 851.074524,496.981873 
	C852.441162,491.791107 852.942383,487.643372 853.443604,483.495605 
	C854.828308,476.936615 856.249573,470.384857 857.554626,463.810059 
	C857.730530,462.923706 856.849731,461.577209 857.253418,461.023041 
	C867.587830,446.836975 864.049133,429.404449 868.373718,413.831421 
	C868.546936,413.207855 868.172546,412.234528 868.518555,411.885712 
	C875.688049,404.658112 873.469055,394.394684 876.867188,385.905823 
	C878.792175,381.097046 878.629517,375.487488 879.734924,370.308563 
	C882.054932,359.438446 884.591553,348.614594 887.208252,337.023224 
	C892.934204,336.047455 899.362610,335.262024 905.794434,337.829590 
	C907.327209,338.441498 909.056641,339.209320 910.600891,339.040314 
	C921.776001,337.817200 932.313538,342.230713 943.443237,342.225647 
	C1297.350830,342.064819 1651.258423,342.101471 2005.166138,342.012817 
	C2009.876343,342.011627 2015.149414,343.890076 2019.206787,339.207367 
	C2019.849121,338.466003 2022.310181,339.470551 2023.907104,339.352570 
	C2027.856689,339.060699 2031.795532,338.609924 2035.733887,338.179718 
	C2043.219727,337.361969 2050.702148,336.513947 2057.871338,335.713593 
	C2058.752197,342.999573 2059.057373,348.904083 2060.254150,354.621948 
	C2061.986328,362.897430 2064.472412,371.012115 2066.424805,379.245697 
	C2067.565186,384.054779 2068.206055,388.979889 2069.222656,393.821106 
	C2071.545654,404.885590 2073.961670,415.930573 2076.339600,426.983521 
	C2080.800537,428.078094 2079.389404,431.939850 2079.949463,434.808685 
	C2080.707764,438.692871 2081.026855,442.671661 2081.928711,446.517426 
	C2085.612061,462.224060 2089.459717,477.892120 2093.217041,493.581573 
	C2094.811035,500.238586 2096.577393,506.868561 2097.799561,513.595459 
	C2098.605957,518.035095 2097.114502,520.832520 2091.766846,521.859741 
	C2082.821045,523.578186 2074.091797,526.423767 2064.433350,529.020264 
	C2061.527100,524.025635 2058.902832,518.832886 2055.644531,514.073914 
	C2050.644043,506.770477 2045.889282,499.068329 2036.449585,494.491760 
	C2034.508545,489.122681 2031.036865,490.020477 2027.915405,490.050385 
	C2027.915405,490.050385 2028.000610,489.996368 2027.726929,489.302551 
	C2024.295654,488.353973 2021.137939,488.099213 2017.980347,487.844452 
	C2017.980347,487.844452 2018.108398,487.879700 2017.950562,487.198059 
	C2015.574097,485.740387 2013.394897,484.812195 2011.127197,484.225861 
	C2008.135132,483.452240 2005.073608,482.946808 2001.121094,482.122406 
	C1998.538452,481.870667 1996.876831,481.780579 1995.215088,481.780518 
	C1853.530884,481.775848 1711.846802,481.777466 1570.162598,481.785919 
	C1567.836426,481.786072 1565.471924,481.647614 1563.201660,482.028320 
	C1562.210571,482.194550 1561.412109,483.509216 1560.526123,484.302368 
	C1560.455444,487.298462 1560.322754,490.294617 1560.322632,493.290741 
	C1560.313232,882.198181 1560.271240,1271.105591 1560.480225,1660.012939 
	C1560.487915,1674.484985 1565.170410,1688.009155 1575.783813,1698.841797 
	C1583.017822,1706.225464 1591.636475,1710.029297 1601.910156,1710.217773 
	C1604.211914,1710.260010 1606.515015,1710.223999 1609.447144,1710.223999 
	C1611.813354,1719.618042 1614.159180,1728.931152 1616.830078,1739.534424 
	C1611.510864,1740.359375 1607.729614,1741.453979 1603.946899,1741.458008 
	C1515.634766,1741.554199 1427.322388,1741.558350 1339.010254,1741.440430 
	C1335.351074,1741.435547 1331.693848,1740.084229 1327.716431,1739.296997 
	C1329.926758,1729.059937 1331.822144,1720.281494 1333.817871,1711.038086 
	C1335.046875,1710.752686 1336.278320,1710.173340 1337.478271,1710.232422 
	C1356.254395,1711.156006 1368.805908,1702.006104 1376.524536,1685.650391 
	C1379.545410,1679.249023 1381.494629,1672.341919 1384.791992,1664.303467 
	C1385.836060,1658.628418 1386.180786,1654.314819 1386.181030,1650.001343 
	C1386.205688,1265.693726 1386.203857,881.386108 1386.203735,497.078522 
	C1386.203735,494.745361 1386.318115,492.404785 1386.170044,490.081024 
	C1386.008179,487.542908 1385.603149,485.020294 1385.276123,482.255981 
	C1381.958008,482.075378 1379.333008,481.807861 1376.708008,481.807434 
	C1236.050781,481.785248 1095.393555,481.773682 954.736389,481.859802 
	C951.572205,481.861725 948.408630,482.999695 945.244812,483.607697 
	C945.244812,483.607697 944.737549,483.854675 943.613403,483.935516 
	C938.700439,484.604706 934.911743,485.193024 931.122986,485.781372 
	C930.458923,486.261414 929.794922,486.741425 928.004150,487.467712 
	C924.569031,488.481506 922.260620,489.249023 919.952271,490.016541 
	C919.952271,490.016541 919.976990,489.970886 919.261108,489.854187 
	C916.949219,490.679840 915.353210,491.622162 913.757202,492.564514 
z"/>
<path fill="#E77501" opacity="1.000000" stroke="none" 
	d="
M1283.904907,1570.237061 
	C1281.345459,1570.419800 1278.786133,1570.602539 1274.527832,1570.589844 
	C1266.463379,1570.794189 1259.805420,1568.061646 1253.786255,1572.172119 
	C1250.350464,1573.205811 1246.959106,1574.934692 1243.471436,1575.158325 
	C1223.271362,1576.452881 1203.018799,1577.018555 1182.846558,1578.618530 
	C1173.447021,1579.364136 1164.191772,1581.902344 1154.862549,1583.580444 
	C1152.917358,1583.930420 1150.940430,1584.148804 1148.968262,1584.296631 
	C1138.453369,1585.084961 1127.630005,1582.272705 1117.454590,1587.013916 
	C1112.577026,1584.235229 1107.994995,1587.643188 1103.238892,1587.731934 
	C1084.327148,1588.084106 1065.422119,1588.916382 1046.509888,1589.108643 
	C1021.888550,1589.359009 997.261658,1589.303467 972.639404,1589.100830 
	C963.388855,1589.024780 954.042297,1588.840210 944.930420,1587.451782 
	C937.762817,1586.359741 930.899658,1583.305420 923.879028,1581.196777 
	C920.423584,1580.159180 916.970764,1578.934570 913.425598,1578.404663 
	C896.706238,1575.906006 880.663940,1570.824829 865.376831,1564.001953 
	C848.945007,1556.668091 832.712219,1548.596924 817.320068,1539.310181 
	C803.188599,1530.784058 790.022278,1520.561157 776.918152,1510.453857 
	C760.393982,1497.708496 746.165466,1482.502563 732.205933,1467.028076 
	C728.335388,1462.737427 727.672852,1458.168823 728.618591,1453.242065 
	C729.716125,1447.524536 732.280762,1442.060913 733.115295,1436.327881 
	C734.115662,1429.455444 733.991943,1422.416382 734.294983,1415.446899 
	C734.468262,1411.461792 734.522156,1407.471558 735.822571,1402.352539 
	C737.341858,1396.947266 737.953003,1392.673218 737.954041,1388.398926 
	C738.001099,1191.086304 737.994995,993.773682 737.994934,796.461060 
	C737.994934,753.132263 738.045044,709.803345 737.906799,666.475037 
	C737.894592,662.646240 736.651611,658.821472 735.980225,654.994812 
	C738.503296,632.400879 742.503662,610.285034 756.542053,591.413940 
	C756.738464,591.149841 756.840027,590.817383 757.017151,590.536621 
	C763.431030,580.369812 771.483154,575.696045 784.649048,575.918640 
	C839.569275,576.847229 894.514282,576.309265 949.450195,576.310852 
	C952.113708,576.310913 954.938354,575.779663 957.392883,576.500488 
	C959.609680,577.151672 963.017151,579.041809 963.154907,580.624512 
	C964.094177,591.416992 964.798706,602.298767 962.567322,613.778442 
	C951.225220,612.754333 941.189026,614.169189 933.382385,621.982483 
	C926.434692,628.936279 919.148621,635.810913 917.435181,647.812134 
	C916.241943,652.997620 915.829956,656.967163 915.829041,660.936768 
	C915.796204,808.536804 915.801270,956.136902 915.801331,1103.736938 
	C915.801331,1191.364014 915.772827,1278.991211 915.890869,1366.618164 
	C915.896423,1370.733887 917.207031,1374.847656 917.909790,1378.962402 
	C919.530457,1384.329834 920.396057,1390.093506 922.955627,1394.968018 
	C926.452393,1401.627563 931.238098,1407.610229 935.976013,1414.959229 
	C938.947876,1418.075317 941.415039,1420.115356 943.882202,1422.155273 
	C943.882202,1422.155273 944.002014,1422.018433 943.892517,1422.796631 
	C946.492310,1428.407471 950.823914,1430.109985 956.112915,1429.965454 
	C956.112915,1429.965454 955.996155,1429.996582 956.142944,1430.671143 
	C960.892883,1436.320435 966.920654,1436.078003 972.933411,1435.890503 
	C972.933411,1435.890503 973.267456,1435.959595 973.657715,1436.549072 
	C974.678955,1437.407837 975.309937,1437.677124 976.785889,1438.057617 
	C982.469116,1438.889038 987.307190,1439.608887 992.634644,1440.912842 
	C997.566284,1441.410645 1002.543457,1444.387573 1006.100769,1439.231445 
	C1006.765076,1438.789307 1007.429382,1438.347290 1009.468994,1438.014404 
	C1016.232910,1437.467896 1022.096069,1440.292725 1026.978516,1435.923950 
	C1029.682373,1435.042480 1032.442261,1434.302490 1035.080811,1433.256226 
	C1049.718140,1427.451172 1063.040771,1419.340332 1070.894897,1405.432617 
	C1075.900635,1396.568848 1080.037720,1387.070923 1081.798218,1376.460571 
	C1083.786255,1364.479492 1083.639404,1352.611450 1083.642456,1340.674438 
	C1083.697021,1119.008789 1083.690796,897.343262 1083.666870,675.677673 
	C1083.664917,657.416382 1082.898682,639.039673 1086.509888,621.076599 
	C1089.250610,607.443237 1093.393799,593.915161 1102.121704,582.701782 
	C1104.163330,580.078796 1108.942505,578.340515 1112.478516,578.313477 
	C1166.794434,577.897461 1221.113281,577.893188 1275.430786,577.627563 
	C1284.713989,577.582153 1293.989502,576.539612 1303.276001,576.373108 
	C1312.935547,576.199951 1315.767944,578.866333 1315.569702,588.724915 
	C1315.406494,596.845886 1317.644287,605.325989 1312.942017,613.817871 
	C1309.071411,613.817871 1305.108887,613.817871 1299.515259,613.853760 
	C1292.858032,613.868225 1288.231079,614.627930 1285.954712,619.986877 
	C1285.954712,619.986877 1285.992432,619.987122 1285.320068,619.828918 
	C1283.564819,621.009155 1282.481934,622.347656 1281.398926,623.686157 
	C1271.704590,632.684265 1267.583008,643.409851 1267.595825,657.001404 
	C1267.858887,934.972412 1267.956787,1212.943970 1267.479736,1490.914551 
	C1267.442017,1512.886841 1289.820312,1534.494995 1308.255249,1533.033936 
	C1309.861206,1532.906494 1311.519897,1533.443115 1313.764282,1533.756348 
	C1317.235840,1543.057251 1316.025513,1552.661133 1314.851440,1562.076538 
	C1314.256226,1566.850464 1309.228638,1566.943481 1303.805908,1568.005859 
	C1296.115479,1569.068359 1289.575439,1565.846680 1283.904907,1570.237061 
z"/>
<path fill="#FDFDFD" opacity="1.000000" stroke="none" 
	d="
M1761.933105,2159.672852 
	C1728.746216,2160.139893 1696.606445,2159.287354 1664.133057,2155.714600 
	C1664.133057,2152.931885 1664.133057,2150.384033 1664.133057,2147.479492 
	C1664.711548,2147.152588 1665.459961,2146.515137 1666.318848,2146.278320 
	C1675.077515,2143.861816 1678.716064,2139.850098 1679.613403,2131.281006 
	C1679.820557,2129.302490 1679.656860,2127.284912 1679.656860,2125.285156 
	C1679.657593,2052.961670 1679.657471,1980.638184 1679.657349,1908.314697 
	C1679.657349,1906.648193 1679.755737,1904.974731 1679.637695,1903.316528 
	C1679.003052,1894.402222 1676.315186,1886.999146 1664.130859,1885.670776 
	C1664.130859,1882.860352 1664.130859,1879.998291 1664.130859,1876.291138 
	C1677.256104,1875.403809 1690.092896,1874.147339 1702.956055,1873.750244 
	C1726.885254,1873.011475 1750.835327,1872.247437 1774.766479,1872.493408 
	C1793.977539,1872.690796 1813.204102,1874.378540 1831.901978,1879.241211 
	C1840.214600,1881.403076 1848.464111,1884.166138 1856.336060,1887.590210 
	C1873.166626,1894.911255 1884.580811,1907.318604 1888.603394,1925.575317 
	C1894.860840,1953.974609 1890.142090,1974.243286 1867.909668,1992.355347 
	C1863.387573,1996.039551 1857.950317,1998.600342 1851.974609,2002.268433 
	C1855.041870,2003.653931 1857.548828,2004.845703 1860.101440,2005.930420 
	C1887.955811,2017.769531 1901.210571,2039.100342 1901.731689,2069.075928 
	C1902.091675,2089.785156 1897.433350,2108.674561 1882.997681,2124.178223 
	C1870.871338,2137.201660 1855.383301,2144.895264 1838.625732,2149.805176 
	C1822.061768,2154.658447 1805.156616,2158.091553 1787.744629,2158.388916 
	C1779.465820,2158.530029 1771.196411,2159.227539 1761.933105,2159.672852 
M1814.383423,2095.987305 
	C1822.434204,2092.183350 1827.673096,2085.745605 1829.331299,2077.240967 
	C1832.974609,2058.555176 1823.106445,2043.998291 1807.241699,2040.513550 
	C1796.071777,2038.059814 1784.276611,2038.267822 1772.739990,2037.740723 
	C1766.233276,2037.443481 1759.684692,2038.064941 1752.799316,2038.283813 
	C1752.799316,2059.824707 1752.799316,2080.244629 1752.799316,2101.259766 
	C1773.404541,2102.808838 1793.396973,2103.093018 1814.383423,2095.987305 
M1769.118774,1982.350464 
	C1779.981445,1981.434082 1790.977539,1981.276611 1801.671021,1979.397339 
	C1813.434814,1977.330078 1821.227417,1967.440674 1821.617798,1956.455444 
	C1821.980469,1946.251343 1814.588501,1936.414795 1802.693848,1934.056030 
	C1791.430542,1931.822510 1779.808594,1931.240356 1768.309448,1930.423584 
	C1763.194092,1930.060181 1757.992920,1930.903442 1752.907349,1931.194580 
	C1752.907349,1948.633179 1752.907349,1964.760864 1752.907349,1981.289429 
	C1758.026367,1981.669800 1762.605957,1982.010010 1769.118774,1982.350464 
z"/>
<path fill="#FCFCFC" opacity="1.000000" stroke="none" 
	d="
M1068.730713,2012.672607 
	C1057.655884,2031.179321 1042.801636,2044.460693 1023.054321,2053.288086 
	C1025.025513,2059.723877 1026.505615,2065.810059 1028.734619,2071.608398 
	C1036.736816,2092.426025 1046.085693,2112.600830 1058.378906,2131.301025 
	C1066.023315,2142.929688 1067.569580,2144.035645 1081.087036,2146.872803 
	C1081.233154,2149.339111 1081.394531,2152.061523 1081.608887,2155.680176 
	C1077.169067,2155.680176 1073.561157,2155.680176 1069.953247,2155.680176 
	C1045.291260,2155.680176 1020.626770,2155.485596 995.969055,2155.811035 
	C989.449707,2155.896973 986.123169,2154.025635 983.255005,2147.728516 
	C972.303284,2123.683594 966.197144,2098.193359 959.289673,2072.283203 
	C947.221313,2072.283203 935.036987,2072.283203 922.151550,2072.283203 
	C921.998718,2075.037354 921.709534,2077.911865 921.701233,2080.787354 
	C921.655945,2096.451172 921.620239,2112.114990 921.697998,2127.778564 
	C921.764099,2141.087158 923.728821,2143.527832 937.201050,2147.304199 
	C937.201050,2149.695068 937.201050,2152.219482 937.201050,2155.212891 
	C902.404907,2155.212891 867.863342,2155.212891 832.824829,2155.212891 
	C832.824829,2152.412598 832.824829,2149.912354 832.824829,2147.465088 
	C845.156799,2142.832275 848.259644,2138.703857 848.276489,2125.173096 
	C848.367676,2051.853760 848.356018,1978.534424 848.285278,1905.215088 
	C848.273193,1892.699097 844.824829,1888.449219 832.777771,1885.296387 
	C832.649902,1882.855835 832.514404,1880.270386 832.340088,1876.944214 
	C835.870789,1876.489502 839.065247,1875.853027 842.282471,1875.701782 
	C858.199768,1874.953369 874.118958,1874.202271 890.045349,1873.702637 
	C908.978760,1873.108643 927.949768,1871.893066 946.850830,1872.532349 
	C973.025513,1873.417725 999.058411,1875.977051 1024.133789,1884.770874 
	C1055.072266,1895.620850 1072.613037,1917.451050 1078.093628,1949.241821 
	C1081.849976,1971.031494 1080.006104,1992.248413 1068.730713,2012.672607 
M1005.659302,1974.694946 
	C1005.873657,1955.357910 996.447815,1942.595459 978.577332,1936.175781 
	C960.115051,1929.543457 941.022949,1931.394287 922.065735,1932.089478 
	C922.065735,1960.229248 922.065735,1987.437500 922.065735,2015.276123 
	C941.974121,2017.164673 961.489319,2017.787720 980.344604,2011.256714 
	C993.060974,2006.852051 1001.425842,1997.756470 1004.206116,1984.179199 
	C1004.735962,1981.592163 1005.167908,1978.984863 1005.659302,1974.694946 
z"/>
<path fill="#FDFDFD" opacity="1.000000" stroke="none" 
	d="
M1290.710938,2156.821777 
	C1273.947998,2163.147217 1256.981812,2165.271484 1240.205811,2165.387207 
	C1194.668701,2165.701660 1153.893188,2152.656738 1121.312988,2118.958496 
	C1116.129395,2113.596924 1113.040527,2108.967041 1115.462158,2100.810059 
	C1117.582642,2093.666748 1117.551636,2085.730469 1117.572510,2078.142090 
	C1117.726929,2022.179810 1117.656006,1966.216797 1117.655884,1910.254028 
	C1117.655884,1907.922241 1117.856934,1905.569458 1117.618164,1903.262207 
	C1116.416016,1891.646973 1113.825317,1887.619263 1102.127930,1885.635376 
	C1102.127930,1882.853027 1102.127930,1879.991577 1102.127930,1876.726074 
	C1136.681519,1876.726074 1170.892822,1876.726074 1205.824829,1876.726074 
	C1205.965576,1879.669678 1206.099365,1882.465454 1206.226440,1885.122559 
	C1192.860229,1888.871704 1190.366943,1892.259155 1190.357544,1906.695312 
	C1190.323364,1958.993896 1190.322266,2011.292480 1190.354858,2063.591064 
	C1190.367798,2084.482910 1198.849609,2096.585205 1218.996582,2102.450684 
	C1232.842773,2106.481689 1246.989136,2107.095215 1260.410034,2100.017822 
	C1273.043091,2093.355957 1279.480591,2082.495850 1279.546997,2068.567139 
	C1279.810547,2013.271729 1279.698730,1957.974243 1279.617554,1902.677734 
	C1279.601929,1892.033936 1276.243042,1888.240601 1264.935303,1885.433960 
	C1264.935303,1882.796021 1264.935303,1880.007324 1264.935303,1876.764526 
	C1297.735718,1876.764526 1330.287720,1876.764526 1363.696655,1876.764526 
	C1363.915649,1879.451782 1364.140381,1882.208252 1364.292480,1884.074951 
	C1359.890015,1886.647827 1355.141846,1887.938965 1353.066284,1891.026733 
	C1350.689331,1894.562744 1349.807251,1899.690063 1349.786865,1904.132935 
	C1349.574829,1950.428223 1349.667236,1996.724854 1349.674072,2043.021118 
	C1349.676147,2056.600586 1349.366699,2070.189697 1349.786743,2083.756104 
	C1350.050537,2092.276123 1351.406860,2100.762695 1352.420654,2110.714600 
	C1335.706787,2128.980469 1316.685425,2146.810303 1290.710938,2156.821777 
z"/>
<path fill="#FCFCFC" opacity="1.000000" stroke="none" 
	d="
M1566.326660,1873.711182 
	C1574.426880,1873.755249 1581.594604,1873.755249 1589.792236,1873.755249 
	C1596.663330,1900.263428 1603.876709,1928.092529 1611.256226,1956.562256 
	C1606.872803,1958.096313 1603.277100,1959.354614 1599.195801,1960.782959 
	C1591.081421,1938.629517 1573.486450,1931.513428 1552.875854,1929.898438 
	C1534.465088,1928.455811 1516.460815,1929.846313 1499.980957,1940.003662 
	C1482.086548,1951.033081 1470.094116,1966.167603 1465.442993,1986.711670 
	C1459.086792,2014.787109 1461.290405,2042.205566 1474.022827,2068.166992 
	C1482.213989,2084.868896 1494.870728,2097.357910 1513.267578,2102.746826 
	C1528.397217,2107.178955 1543.234741,2105.615234 1558.258179,2100.035889 
	C1558.258179,2080.645508 1558.544067,2061.681885 1558.139648,2042.732788 
	C1557.931396,2032.973633 1554.473022,2029.912842 1542.849976,2026.890747 
	C1542.702881,2024.538086 1542.544067,2021.996460 1542.348755,2018.872925 
	C1576.707031,2018.872925 1610.562256,2018.872925 1645.006226,2018.872925 
	C1646.002930,2023.287109 1646.727173,2026.813599 1640.335571,2028.177124 
	C1632.712158,2029.803345 1629.704834,2035.582031 1629.696899,2043.031128 
	C1629.669189,2069.016846 1629.528931,2095.004639 1629.837769,2120.986816 
	C1629.890869,2125.452148 1631.927856,2129.893555 1633.295044,2135.325928 
	C1626.754272,2141.627686 1617.552734,2145.590820 1608.525879,2149.258545 
	C1585.643066,2158.555420 1561.868774,2163.635498 1536.970337,2164.638428 
	C1519.921631,2165.325439 1503.338379,2164.234619 1486.873901,2160.267578 
	C1450.802979,2151.575684 1424.726440,2129.777100 1406.778931,2097.939209 
	C1394.526001,2076.203369 1389.080444,2052.617920 1387.360352,2027.637939 
	C1385.518799,2000.890015 1388.808105,1975.338989 1399.928223,1951.106812 
	C1419.952026,1907.472290 1454.690674,1882.010864 1501.049072,1871.950439 
	C1519.819702,1867.876831 1538.696411,1871.075562 1557.485596,1872.981323 
	C1560.117798,1873.248291 1562.757812,1873.440430 1566.326660,1873.711182 
z"/>
<path fill="#FCFCFC" opacity="1.000000" stroke="none" 
	d="
M1998.408691,2066.513428 
	C1974.027344,2017.954712 1950.003296,1970.132812 1925.888184,1922.356689 
	C1921.406494,1913.477661 1916.784058,1904.653198 1911.811157,1896.043457 
	C1907.609131,1888.768433 1906.275879,1888.084839 1898.008789,1885.266479 
	C1898.008789,1882.783081 1898.008789,1880.180664 1898.008789,1876.949219 
	C1934.920532,1876.949219 1971.695679,1876.949219 2009.147461,1876.949219 
	C2009.325073,1879.422729 2009.504761,1881.923218 2009.729004,1885.044434 
	C2008.071289,1885.672607 2006.577881,1886.141357 2005.166748,1886.789551 
	C1996.958374,1890.559448 1994.736328,1894.916382 1997.583984,1903.458984 
	C1999.885864,1910.364502 2002.923828,1917.028320 2005.711426,1923.767700 
	C2015.350342,1947.070679 2025.004883,1970.367188 2034.704102,1993.645020 
	C2035.926392,1996.578125 2037.449951,1999.385620 2039.470215,2003.569214 
	C2045.291504,1990.271118 2050.628418,1978.188110 2055.875977,1966.066162 
	C2063.652100,1948.102661 2071.384766,1930.120117 2079.083252,1912.122803 
	C2080.255371,1909.382935 2081.238281,1906.551636 2082.144531,1903.710327 
	C2085.770264,1892.343140 2084.046387,1889.142822 2072.110107,1885.544678 
	C2072.110107,1882.813599 2072.110107,1879.946533 2072.110107,1876.700073 
	C2106.015625,1876.700073 2139.572510,1876.700073 2173.824951,1876.700073 
	C2173.980713,1879.653076 2174.128906,1882.463257 2174.295898,1885.631226 
	C2166.294434,1886.381592 2162.285400,1891.552979 2159.031738,1897.537354 
	C2155.700684,1903.664185 2152.412842,1909.818237 2149.271484,1916.044067 
	C2125.013672,1964.119507 2100.847412,2012.241211 2076.500488,2060.271240 
	C2073.565186,2066.062012 2072.080078,2071.803955 2072.237549,2078.352539 
	C2072.590088,2093.000488 2072.347656,2107.663086 2072.347900,2122.319580 
	C2072.347900,2123.985107 2072.285156,2125.653320 2072.359619,2127.315430 
	C2072.921631,2139.854248 2075.671143,2143.510498 2087.852051,2147.514893 
	C2087.852051,2149.890381 2087.852051,2152.425293 2087.852051,2155.320068 
	C2053.349609,2155.320068 2019.119385,2155.320068 1984.243652,2155.320068 
	C1984.042236,2152.687744 1983.851685,2150.197998 1983.615723,2147.114014 
	C1985.751465,2146.545898 1987.554810,2146.023682 1989.379028,2145.589111 
	C1994.103882,2144.464844 1996.741333,2141.345215 1997.870972,2136.779541 
	C1998.426392,2134.535156 1999.390381,2132.274414 1999.377808,2130.025635 
	C1999.261719,2109.105225 1998.973145,2088.185791 1998.408691,2066.513428 
z"/>
<path fill="#7E7E7E" opacity="1.000000" stroke="none" 
	d="
M946.238647,483.776642 
	C948.408630,482.999695 951.572205,481.861725 954.736389,481.859802 
	C1095.393555,481.773682 1236.050781,481.785248 1376.708008,481.807434 
	C1379.333008,481.807861 1381.958008,482.075378 1385.276123,482.255981 
	C1385.603149,485.020294 1386.008179,487.542908 1386.170044,490.081024 
	C1386.318115,492.404785 1386.203735,494.745361 1386.203735,497.078522 
	C1386.203857,881.386108 1386.205688,1265.693726 1386.181030,1650.001343 
	C1386.180786,1654.314819 1385.836060,1658.628418 1385.089233,1663.584839 
	C1384.346313,1659.913330 1384.009155,1655.598755 1384.008911,1651.284302 
	C1383.984863,1267.035034 1383.986450,882.785828 1383.986450,498.536591 
	C1383.986450,494.220215 1383.986572,489.903809 1383.986572,484.306519 
	C1380.471191,484.180603 1377.302612,483.967407 1374.134033,483.967926 
	C1233.165405,483.991425 1092.196655,484.034119 951.228027,484.068451 
	C949.896179,484.068787 948.564392,483.988342 946.238647,483.776642 
z"/>
<path fill="#A78A6D" opacity="1.000000" stroke="none" 
	d="
M735.714539,655.994385 
	C736.651611,658.821472 737.894592,662.646240 737.906799,666.475037 
	C738.045044,709.803345 737.994934,753.132263 737.994934,796.461060 
	C737.994995,993.773682 738.001099,1191.086304 737.954041,1388.398926 
	C737.953003,1392.673218 737.341858,1396.947266 736.247437,1401.656982 
	C735.407715,1399.098511 735.273193,1396.104492 735.273071,1393.110474 
	C735.263977,1150.733032 735.264648,908.355469 735.273438,665.977966 
	C735.273560,662.983276 735.387878,659.988586 735.714539,655.994385 
z"/>
<path fill="#858585" opacity="1.000000" stroke="none" 
	d="
M918.064941,1377.949707 
	C917.207031,1374.847656 915.896423,1370.733887 915.890869,1366.618164 
	C915.772827,1278.991211 915.801331,1191.364014 915.801331,1103.736938 
	C915.801270,956.136902 915.796204,808.536804 915.829041,660.936768 
	C915.829956,656.967163 916.241943,652.997620 917.134521,648.504456 
	C917.982788,650.961914 918.312500,653.943054 918.312805,656.924133 
	C918.334839,894.931824 918.331482,1132.939453 918.324951,1370.947144 
	C918.324890,1372.943848 918.256531,1374.940430 918.064941,1377.949707 
z"/>
<path fill="#7A7978" opacity="1.000000" stroke="none" 
	d="
M1561.419434,484.221680 
	C1561.412109,483.509216 1562.210571,482.194550 1563.201660,482.028320 
	C1565.471924,481.647614 1567.836426,481.786072 1570.162598,481.785919 
	C1711.846802,481.777466 1853.530884,481.775848 1995.215088,481.780518 
	C1996.876831,481.780579 1998.538452,481.870667 2001.119873,482.519592 
	C2002.039551,483.120453 2002.016113,483.917572 2002.016113,483.917572 
	C1995.356079,483.942627 1988.696045,483.989319 1982.036011,483.989502 
	C1844.458618,483.993195 1706.881348,483.990936 1569.303955,483.997375 
	C1566.973633,483.997498 1564.643188,484.091003 1561.419434,484.221680 
z"/>
<path fill="#A78A6D" opacity="1.000000" stroke="none" 
	d="
M1991.943359,569.637268 
	C1936.667236,570.112854 1881.191895,570.041931 1825.716553,570.008057 
	C1808.776123,569.997742 1791.835571,570.089294 1774.081787,570.159851 
	C1776.087891,569.755859 1778.901245,568.996155 1781.727295,568.946472 
	C1817.922241,568.310181 1854.117432,567.582275 1890.315796,567.274353 
	C1920.896973,567.014221 1951.482666,567.217407 1982.065674,567.377625 
	C1985.294800,567.394592 1988.518188,568.502930 1991.943359,569.637268 
z"/>
<path fill="#7E7E7E" opacity="1.000000" stroke="none" 
	d="
M1767.439575,570.283447 
	C1765.226440,571.096741 1762.075684,572.107483 1758.913574,572.144043 
	C1743.312988,572.324829 1727.709229,572.247559 1711.190308,572.284790 
	C1712.540283,571.544495 1714.799683,570.144470 1717.074341,570.118958 
	C1733.546753,569.934143 1750.022217,570.026855 1767.439575,570.283447 
z"/>
<path fill="#A78A6D" opacity="1.000000" stroke="none" 
	d="
M1664.711670,1568.884521 
	C1680.048340,1568.297852 1695.799683,1568.445312 1712.245361,1569.208008 
	C1697.001831,1569.754761 1681.064209,1569.686646 1664.711670,1568.884521 
z"/>
<path fill="#8A7866" opacity="1.000000" stroke="none" 
	d="
M2268.740234,1235.819092 
	C2268.116211,1233.208862 2268.187500,1230.337769 2268.405518,1227.477783 
	C2268.844727,1221.725220 2269.363525,1215.978882 2270.600098,1210.020508 
	C2271.513428,1216.721191 2271.833496,1223.633911 2271.727783,1230.540039 
	C2271.701904,1232.225342 2270.280762,1233.889404 2268.740234,1235.819092 
z"/>
<path fill="#8A7866" opacity="1.000000" stroke="none" 
	d="
M2271.915527,895.223511 
	C2270.682617,894.931946 2268.366211,893.715942 2268.374268,892.515076 
	C2268.412354,886.670593 2269.072510,880.830200 2269.752441,874.146118 
	C2274.076416,879.991089 2271.055176,887.324585 2271.915527,895.223511 
z"/>
<path fill="#A78A6D" opacity="1.000000" stroke="none" 
	d="
M1697.218262,573.858398 
	C1695.054688,574.678467 1691.966431,575.794861 1688.848267,575.885620 
	C1679.242798,576.165222 1669.626099,576.052917 1659.091797,576.096069 
	C1660.739380,575.262268 1663.292603,573.768555 1665.881348,573.704224 
	C1676.008179,573.452820 1686.146118,573.653137 1697.218262,573.858398 
z"/>
<path fill="#8A7866" opacity="1.000000" stroke="none" 
	d="
M972.633301,1435.176025 
	C966.920654,1436.078003 960.892883,1436.320435 956.149780,1430.611084 
	C961.450867,1431.404785 966.892029,1432.933105 972.633301,1435.176025 
z"/>
<path fill="#858585" opacity="1.000000" stroke="none" 
	d="
M2002.441162,484.522827 
	C2002.016113,483.917572 2002.039551,483.120453 2002.040771,482.723267 
	C2005.073608,482.946808 2008.135132,483.452240 2011.127197,484.225861 
	C2013.394897,484.812195 2015.574097,485.740387 2017.962646,487.263367 
	C2013.043945,487.049561 2007.955078,486.088806 2002.441162,484.522827 
z"/>
<path fill="#A78A6D" opacity="1.000000" stroke="none" 
	d="
M2260.721191,1284.714111 
	C2260.889160,1279.353516 2257.739746,1273.226318 2262.710938,1267.490112 
	C2262.739990,1272.857788 2262.014404,1278.606201 2260.721191,1284.714111 
z"/>
<path fill="#8A7866" opacity="1.000000" stroke="none" 
	d="
M1286.735962,619.954834 
	C1288.231079,614.627930 1292.858032,613.868225 1298.604126,613.887329 
	C1296.715942,618.493530 1291.777100,618.544373 1286.735962,619.954834 
z"/>
<path fill="#8A7866" opacity="1.000000" stroke="none" 
	d="
M866.199219,524.605469 
	C870.005615,524.760742 873.985229,525.606201 878.620178,526.830994 
	C874.836304,528.974792 871.114990,528.422607 866.199219,524.605469 
z"/>
<path fill="#8A7866" opacity="1.000000" stroke="none" 
	d="
M955.859009,1429.330444 
	C950.823914,1430.109985 946.492310,1428.407471 943.815430,1422.844727 
	C947.766907,1424.308105 951.686035,1426.501831 955.859009,1429.330444 
z"/>
<path fill="#A78A6D" opacity="1.000000" stroke="none" 
	d="
M2262.274170,842.053040 
	C2257.914795,838.199890 2260.828857,833.079346 2259.817871,827.843750 
	C2263.799316,830.849304 2262.869141,835.744202 2262.519043,841.244629 
	C2262.373291,842.010376 2262.274170,842.053040 2262.274170,842.053040 
z"/>
<path fill="#8A7866" opacity="1.000000" stroke="none" 
	d="
M846.839966,509.963379 
	C847.527405,514.294250 848.422546,518.797424 854.038940,521.250305 
	C845.288635,521.008118 845.288635,521.008118 846.839966,509.963379 
z"/>
<path fill="#A78A6D" opacity="1.000000" stroke="none" 
	d="
M1650.194336,614.438354 
	C1653.992676,613.800232 1658.092896,613.363037 1659.778320,618.948242 
	C1656.660278,618.137207 1653.467163,616.625916 1650.194336,614.438354 
z"/>
<path fill="#7A7978" opacity="1.000000" stroke="none" 
	d="
M2272.764648,1207.301758 
	C2272.209473,1200.781006 2272.371094,1193.844482 2273.191162,1186.378662 
	C2273.726562,1192.861450 2273.603760,1199.873657 2272.764648,1207.301758 
z"/>
<path fill="#7E7E7E" opacity="1.000000" stroke="none" 
	d="
M2274.207520,916.780396 
	C2273.296387,914.644836 2272.210205,911.678650 2271.889160,908.631714 
	C2271.513428,905.067932 2271.804199,901.433838 2271.808594,896.925659 
	C2272.634766,897.542542 2274.068604,899.024414 2274.170166,900.592590 
	C2274.499756,905.682739 2274.341553,910.804504 2274.207520,916.780396 
z"/>
<path fill="#858585" opacity="1.000000" stroke="none" 
	d="
M992.145325,1440.328857 
	C987.307190,1439.608887 982.469116,1438.889038 976.802002,1437.638916 
	C975.973083,1437.108765 975.990479,1436.270142 975.990479,1436.270142 
	C981.907349,1436.947388 987.824158,1437.624634 993.560303,1439.140503 
	C992.968262,1440.095581 992.556824,1440.212158 992.145325,1440.328857 
z"/>
<path fill="#A78A6D" opacity="1.000000" stroke="none" 
	d="
M2258.299805,824.666382 
	C2257.058350,821.089966 2255.968018,816.798828 2255.394531,812.101196 
	C2259.598145,815.191956 2258.612793,819.657104 2258.299805,824.666382 
z"/>
<path fill="#8A7866" opacity="1.000000" stroke="none" 
	d="
M2107.764160,601.880127 
	C2103.845459,600.717651 2099.967529,598.806213 2095.899170,596.161438 
	C2099.740967,597.329102 2103.772949,599.230103 2107.764160,601.880127 
z"/>
<path fill="#8A7866" opacity="1.000000" stroke="none" 
	d="
M1284.810547,1570.290039 
	C1289.575439,1565.846680 1296.115479,1569.068359 1303.065308,1568.246582 
	C1301.358154,1568.945557 1298.795410,1569.821777 1296.171631,1570.080566 
	C1292.711426,1570.421753 1289.203613,1570.278198 1284.810547,1570.290039 
z"/>
<path fill="#8A7866" opacity="1.000000" stroke="none" 
	d="
M1254.701294,1572.177979 
	C1259.805420,1568.061646 1266.463379,1570.794189 1273.759155,1570.631592 
	C1268.331665,1571.307007 1261.973999,1571.745361 1254.701294,1572.177979 
z"/>
<path fill="#8A7866" opacity="1.000000" stroke="none" 
	d="
M2228.856934,1390.113281 
	C2226.972412,1385.408447 2230.703857,1382.310059 2233.163818,1378.098511 
	C2234.949951,1382.642944 2231.295654,1385.934937 2228.856934,1390.113281 
z"/>
<path fill="#7E7E7E" opacity="1.000000" stroke="none" 
	d="
M1638.416504,1566.588623 
	C1643.349731,1566.195312 1648.967163,1566.263062 1655.181152,1566.844604 
	C1650.218628,1567.255493 1644.659790,1567.152710 1638.416504,1566.588623 
z"/>
<path fill="#8A7866" opacity="1.000000" stroke="none" 
	d="
M2217.734863,708.565247 
	C2212.577637,709.479980 2214.909912,703.768738 2212.027344,701.571899 
	C2217.049561,700.620422 2215.093018,706.173279 2217.734863,708.565247 
z"/>
<path fill="#8A7866" opacity="1.000000" stroke="none" 
	d="
M943.802002,1421.537109 
	C941.415039,1420.115356 938.947876,1418.075317 936.580078,1415.447998 
	C939.026917,1416.879883 941.374390,1418.899414 943.802002,1421.537109 
z"/>
<path fill="#8A7866" opacity="1.000000" stroke="none" 
	d="
M2227.986328,729.369019 
	C2225.900391,726.989136 2223.875244,723.906006 2221.844238,720.244263 
	C2223.908203,722.665710 2225.977539,725.665771 2227.986328,729.369019 
z"/>
<path fill="#858585" opacity="1.000000" stroke="none" 
	d="
M1026.021729,1435.764404 
	C1022.096069,1440.292725 1016.232910,1437.467896 1009.883301,1437.998047 
	C1014.303162,1437.116455 1019.684082,1436.360718 1026.021729,1435.764404 
z"/>
<path fill="#8A7866" opacity="1.000000" stroke="none" 
	d="
M854.061768,522.603882 
	C857.759521,522.142456 861.538208,522.329651 865.691040,523.233582 
	C862.091064,523.717712 858.116943,523.485168 854.061768,522.603882 
z"/>
<path fill="#8A7866" opacity="1.000000" stroke="none" 
	d="
M852.854675,483.987671 
	C852.942383,487.643372 852.441162,491.791107 851.223267,496.270538 
	C851.093018,492.561371 851.679382,488.520569 852.854675,483.987671 
z"/>
<path fill="#858585" opacity="1.000000" stroke="none" 
	d="
M2264.575195,1266.477783 
	C2264.057861,1262.434204 2264.260498,1257.874634 2265.065430,1252.789307 
	C2265.543457,1256.829590 2265.419434,1261.395630 2264.575195,1266.477783 
z"/>
<path fill="#A78A6D" opacity="1.000000" stroke="none" 
	d="
M992.634644,1440.912842 
	C992.556824,1440.212158 992.968262,1440.095581 993.999756,1439.810791 
	C997.891357,1439.536255 1001.162842,1439.430176 1005.267578,1439.277832 
	C1002.543457,1444.387573 997.566284,1441.410645 992.634644,1440.912842 
z"/>
<path fill="#7E7E7E" opacity="1.000000" stroke="none" 
	d="
M2262.552734,842.735352 
	C2262.274170,842.053040 2262.373291,842.010376 2262.424805,842.022705 
	C2263.667725,843.204468 2265.575195,844.208374 2265.892090,845.579956 
	C2266.443115,847.963257 2266.011230,850.573730 2265.734863,854.028442 
	C2264.596191,851.117798 2263.713867,847.267761 2262.552734,842.735352 
z"/>
<path fill="#A78A6D" opacity="1.000000" stroke="none" 
	d="
M2000.786255,1569.963867 
	C2004.175171,1569.290405 2008.425049,1568.689331 2013.532349,1568.197754 
	C2010.142334,1568.883423 2005.894653,1569.459839 2000.786255,1569.963867 
z"/>
<path fill="#8A7866" opacity="1.000000" stroke="none" 
	d="
M2231.203125,737.312500 
	C2227.202393,737.351807 2228.477783,733.823608 2227.785889,730.735596 
	C2228.991455,732.240906 2230.077148,734.449768 2231.203125,737.312500 
z"/>
<path fill="#858585" opacity="1.000000" stroke="none" 
	d="
M2028.015869,490.761566 
	C2031.036865,490.020477 2034.508545,489.122681 2035.925659,494.103699 
	C2033.314819,493.770844 2030.715698,492.621796 2028.015869,490.761566 
z"/>
<path fill="#A78A6D" opacity="1.000000" stroke="none" 
	d="
M931.988159,486.081207 
	C934.911743,485.193024 938.700439,484.604706 943.337524,483.994568 
	C941.143005,488.232849 936.734131,486.064148 931.988159,486.081207 
z"/>
<path fill="#A78A6D" opacity="1.000000" stroke="none" 
	d="
M2268.307129,869.397095 
	C2263.556152,867.236938 2266.557129,862.731445 2266.071289,857.996582 
	C2270.571533,860.158752 2267.916504,864.653809 2268.307129,869.397095 
z"/>
<path fill="#A78A6D" opacity="1.000000" stroke="none" 
	d="
M2266.855957,1250.831421 
	C2266.129639,1247.255005 2265.884033,1243.493774 2266.346680,1238.832520 
	C2267.448975,1237.949341 2267.843018,1237.966187 2268.236816,1237.983032 
	C2268.327881,1240.627930 2268.419189,1243.272705 2268.257812,1247.280518 
	C2267.987549,1249.035889 2267.969482,1249.428223 2267.951416,1249.820679 
	C2267.746582,1250.095947 2267.541504,1250.371338 2266.855957,1250.831421 
z"/>
<path fill="#858585" opacity="1.000000" stroke="none" 
	d="
M2018.354614,488.523132 
	C2021.137939,488.099213 2024.295654,488.353973 2027.722656,489.352875 
	C2024.904297,489.798615 2021.816528,489.500214 2018.354614,488.523132 
z"/>
<path fill="#8A7866" opacity="1.000000" stroke="none" 
	d="
M1282.081421,623.634277 
	C1282.481934,622.347656 1283.564819,621.009155 1285.316162,619.809937 
	C1284.911011,621.160217 1283.837524,622.371277 1282.081421,623.634277 
z"/>
<path fill="#8A7866" opacity="1.000000" stroke="none" 
	d="
M1668.134521,626.525635 
	C1669.408081,626.796875 1670.756104,627.682800 1672.121704,629.267700 
	C1670.829224,629.024536 1669.519165,628.082458 1668.134521,626.525635 
z"/>
<path fill="#8A7866" opacity="1.000000" stroke="none" 
	d="
M1664.234375,622.368530 
	C1665.587891,622.684631 1666.979736,623.635742 1668.230713,625.266357 
	C1666.817627,624.965088 1665.545044,623.984253 1664.234375,622.368530 
z"/>
<path fill="#8A7866" opacity="1.000000" stroke="none" 
	d="
M920.745300,490.069580 
	C922.260620,489.249023 924.569031,488.481506 927.691223,487.732605 
	C926.182800,488.541718 923.860596,489.332153 920.745300,490.069580 
z"/>
<path fill="#8A7866" opacity="1.000000" stroke="none" 
	d="
M914.512451,492.560425 
	C915.353210,491.622162 916.949219,490.679840 919.286255,489.847748 
	C918.440735,490.824097 916.854248,491.690216 914.512451,492.560425 
z"/>
<path fill="#8A7866" opacity="1.000000" stroke="none" 
	d="
M975.367432,1436.170166 
	C975.990479,1436.270142 975.973083,1437.108765 975.956970,1437.527588 
	C975.309937,1437.677124 974.678955,1437.407837 973.769531,1436.677979 
	C973.908752,1436.168335 974.326599,1436.119263 975.367432,1436.170166 
z"/>
<path fill="#8A7866" opacity="1.000000" stroke="none" 
	d="
M2219.175293,713.863281 
	C2218.655029,713.985596 2218.338379,713.594849 2218.193848,712.703613 
	C2218.718994,712.560913 2219.056885,712.943237 2219.175293,713.863281 
z"/>
<path fill="#8A7866" opacity="1.000000" stroke="none" 
	d="
M2221.206055,714.874573 
	C2221.268555,715.192078 2220.723633,715.283325 2220.723633,715.283325 
	C2220.723633,715.283325 2220.249756,714.999634 2220.082520,714.780579 
	C2220.325195,714.237671 2220.734619,714.236145 2221.206055,714.874573 
z"/>
<path fill="#8A7866" opacity="1.000000" stroke="none" 
	d="
M2268.252930,1249.641113 
	C2267.969482,1249.428223 2267.987549,1249.035889 2268.135010,1248.066895 
	C2268.430176,1247.921387 2268.638428,1248.342529 2268.741455,1248.787964 
	C2268.787842,1248.987305 2268.623047,1249.235474 2268.252930,1249.641113 
z"/>
<path fill="#8A7866" opacity="1.000000" stroke="none" 
	d="
M2268.319824,1237.469116 
	C2267.843018,1237.966187 2267.448975,1237.949341 2266.463135,1237.906250 
	C2266.238281,1237.285645 2266.605225,1236.691162 2267.516113,1236.034424 
	C2268.174072,1236.299805 2268.288330,1236.627441 2268.319824,1237.469116 
z"/>
<path fill="#8A7866" opacity="1.000000" stroke="none" 
	d="
M1662.756104,620.374512 
	C1663.192261,620.082581 1663.668335,620.411255 1664.100098,621.426636 
	C1663.661621,621.655457 1663.241821,621.282715 1662.756104,620.374512 
z"/>
<path fill="#010101" opacity="1.000000" stroke="none" 
	d="
M2056.943359,1347.796387 
	C2054.778320,1351.435425 2052.613281,1355.074463 2050.191895,1359.979248 
	C2048.607910,1364.187500 2047.280273,1367.130005 2045.952637,1370.072388 
	C2045.952637,1370.072388 2046.069824,1370.027710 2045.583496,1370.210205 
	C2044.644287,1371.503906 2044.191528,1372.614868 2043.738770,1373.725952 
	C2043.403320,1374.034058 2043.067871,1374.342163 2041.791504,1375.480225 
	C2039.194824,1379.531128 2037.538940,1382.751953 2035.883057,1385.972778 
	C2035.882935,1385.972778 2035.995850,1386.004028 2035.364746,1385.976929 
	C2034.470093,1386.655762 2034.206421,1387.361816 2033.942871,1388.067749 
	C2033.942871,1388.067749 2034.058228,1388.015015 2033.417480,1388.225952 
	C2029.930908,1391.288574 2026.895508,1393.979980 2024.304810,1397.047119 
	C2022.540161,1399.136353 2021.397339,1401.750977 2019.976562,1404.130615 
	C2011.123901,1410.057129 2001.406372,1414.348511 1991.631714,1418.367065 
	C1985.971558,1420.693970 1979.772705,1422.965820 1973.788208,1423.041260 
	C1939.149658,1423.477905 1904.502686,1423.266357 1869.858643,1423.226074 
	C1867.269531,1423.223145 1864.680908,1422.843872 1861.657715,1422.605225 
	C1861.657715,1188.338501 1861.657715,954.623596 1861.657715,720.835754 
	C1862.112183,720.673828 1862.726318,720.271545 1863.347778,720.260010 
	C1898.911133,719.600586 1934.473755,718.861877 1970.040039,718.436462 
	C1977.274170,718.349915 1984.522461,719.455688 1992.734375,720.605957 
	C1994.186157,722.084534 1994.568115,723.644470 1995.167603,723.733093 
	C1997.426270,724.067017 1999.755615,723.922180 2002.058594,723.956665 
	C2002.058594,723.956665 2002.007690,723.985291 2002.227295,724.576111 
	C2004.413208,726.006409 2006.379639,726.845947 2008.345947,727.685425 
	C2010.099121,728.738647 2011.852417,729.791870 2014.476074,731.736572 
	C2017.555176,733.762146 2019.764038,734.896179 2021.972778,736.030273 
	C2021.972778,736.030273 2022.000000,736.000000 2022.024780,736.688660 
	C2024.043823,738.924011 2026.038208,740.470764 2028.032471,742.017517 
	C2028.032471,742.017517 2028.015381,741.990784 2028.027100,742.560181 
	C2028.698730,743.434692 2029.358643,743.739868 2030.018433,744.045044 
	C2030.018433,744.045044 2030.014160,743.980957 2030.043457,744.636414 
	C2032.070190,746.860535 2034.067505,748.429199 2036.064819,749.997864 
	C2036.064819,749.997864 2036.027588,749.975708 2036.084473,750.532471 
	C2036.788574,751.386475 2037.435547,751.683594 2038.082642,751.980713 
	C2038.082642,751.980713 2038.036499,751.932312 2038.284912,752.537231 
	C2041.096313,755.195984 2040.747314,760.320862 2045.658447,759.898010 
	C2050.174805,768.927368 2054.727783,777.938843 2059.175781,787.001648 
	C2060.041992,788.766357 2060.500244,790.731140 2061.350098,794.047180 
	C2063.571045,799.870972 2065.588379,804.251282 2067.605713,808.631592 
	C2068.112793,812.311462 2068.619873,815.991394 2069.702637,820.777649 
	C2071.604980,824.804565 2072.931641,827.725220 2074.258057,830.645813 
	C2075.755371,839.233276 2078.013916,847.774414 2078.539795,856.421082 
	C2079.084961,865.384155 2084.711426,872.871643 2084.007324,882.322083 
	C2083.351318,891.126038 2083.935303,900.554871 2086.490479,908.941650 
	C2090.399414,921.770020 2086.708496,935.447327 2092.169434,947.909424 
	C2093.036865,949.888733 2092.492432,952.513489 2092.495850,954.840027 
	C2092.516602,968.485779 2092.333984,982.134338 2092.553223,995.776611 
	C2092.793213,1010.713745 2093.827881,1025.647339 2093.753174,1040.578613 
	C2093.567139,1077.813477 2093.628418,1115.073853 2092.120117,1152.264404 
	C2091.617432,1164.656738 2090.901611,1177.423340 2088.788574,1189.547974 
	C2085.882080,1206.226074 2085.292236,1222.937378 2083.600586,1239.624756 
	C2083.327148,1242.325317 2081.861328,1244.898560 2081.004150,1247.549194 
	C2080.512207,1249.069580 2079.900146,1250.604248 2079.746094,1252.171997 
	C2078.877686,1261.022095 2078.131592,1269.884155 2076.300781,1278.921631 
	C2074.729980,1284.043457 2074.202637,1288.985474 2073.675293,1293.927612 
	C2073.675049,1293.927612 2073.910889,1293.882080 2073.150391,1293.997559 
	C2071.571045,1297.415894 2070.752441,1300.718994 2069.933594,1304.021973 
	C2069.933594,1304.021973 2070.024170,1304.015625 2069.276855,1304.298462 
	C2068.335938,1308.353882 2068.142822,1312.126343 2067.949707,1315.898926 
	C2067.113281,1319.061890 2066.276611,1322.224731 2064.554688,1325.437500 
	C2062.394043,1331.003784 2061.118652,1336.520264 2059.843262,1342.036743 
	C2059.843262,1342.036743 2060.001953,1341.988159 2059.329346,1342.085327 
	C2058.085449,1344.053711 2057.514404,1345.925049 2056.943359,1347.796387 
z"/>
<path fill="#8A7866" opacity="1.000000" stroke="none" 
	d="
M2020.675293,1404.066772 
	C2021.397339,1401.750977 2022.540161,1399.136353 2024.304810,1397.047119 
	C2026.895508,1393.979980 2029.930908,1391.288574 2033.398193,1388.165527 
	C2032.769531,1395.591431 2027.531494,1400.158081 2020.675293,1404.066772 
z"/>
<path fill="#8A7866" opacity="1.000000" stroke="none" 
	d="
M2067.704590,807.835327 
	C2065.588379,804.251282 2063.571045,799.870972 2061.662109,794.692383 
	C2064.562256,797.917480 2068.484375,801.421936 2067.704590,807.835327 
z"/>
<path fill="#8A7866" opacity="1.000000" stroke="none" 
	d="
M2060.463867,1341.615356 
	C2061.118652,1336.520264 2062.394043,1331.003784 2064.041504,1325.983643 
	C2063.303711,1331.384766 2062.194092,1336.289307 2060.463867,1341.615356 
z"/>
<path fill="#8A7866" opacity="1.000000" stroke="none" 
	d="
M2036.587402,1385.801636 
	C2037.538940,1382.751953 2039.194824,1379.531128 2041.507080,1376.101440 
	C2042.449219,1380.093994 2041.662598,1383.758911 2036.587402,1385.801636 
z"/>
<path fill="#858585" opacity="1.000000" stroke="none" 
	d="
M2070.730957,1304.118164 
	C2070.752441,1300.718994 2071.571045,1297.415894 2073.107422,1293.885254 
	C2073.059814,1297.176514 2072.294189,1300.695312 2070.730957,1304.118164 
z"/>
<path fill="#8A7866" opacity="1.000000" stroke="none" 
	d="
M2045.467773,759.276855 
	C2040.747314,760.320862 2041.096313,755.195984 2038.251953,752.531982 
	C2042.818237,751.549255 2043.668823,755.513489 2045.467773,759.276855 
z"/>
<path fill="#8A7866" opacity="1.000000" stroke="none" 
	d="
M2046.617432,1369.956299 
	C2047.280273,1367.130005 2048.607910,1364.187500 2050.345215,1360.675293 
	C2052.325684,1364.323730 2050.064941,1367.175049 2046.617432,1369.956299 
z"/>
<path fill="#8A7866" opacity="1.000000" stroke="none" 
	d="
M2074.383789,1293.512329 
	C2074.202637,1288.985474 2074.729980,1284.043457 2075.771973,1279.520874 
	C2075.888672,1284.325928 2075.490479,1288.711548 2074.383789,1293.512329 
z"/>
<path fill="#A78A6D" opacity="1.000000" stroke="none" 
	d="
M2074.144043,829.834839 
	C2072.931641,827.725220 2071.604980,824.804565 2070.388184,821.200256 
	C2075.980469,821.564514 2073.004395,826.125122 2074.144043,829.834839 
z"/>
<path fill="#8A7866" opacity="1.000000" stroke="none" 
	d="
M2036.100098,749.302002 
	C2034.067505,748.429199 2032.070190,746.860535 2030.011230,744.637390 
	C2032.011597,745.524048 2034.073608,747.065125 2036.100098,749.302002 
z"/>
<path fill="#8A7866" opacity="1.000000" stroke="none" 
	d="
M2028.136719,741.309937 
	C2026.038208,740.470764 2024.043823,738.924011 2022.010254,736.702942 
	C2024.060913,737.553162 2026.151001,739.077759 2028.136719,741.309937 
z"/>
<path fill="#8A7866" opacity="1.000000" stroke="none" 
	d="
M2022.105957,735.300781 
	C2019.764038,734.896179 2017.555176,733.762146 2014.929810,732.160645 
	C2017.088501,732.652527 2019.663696,733.611877 2022.105957,735.300781 
z"/>
<path fill="#A78A6D" opacity="1.000000" stroke="none" 
	d="
M2001.829346,723.285278 
	C1999.755615,723.922180 1997.426270,724.067017 1995.167603,723.733093 
	C1994.568115,723.644470 1994.186157,722.084534 1993.610596,720.558167 
	C1996.211304,720.815552 1998.905640,721.714783 2001.829346,723.285278 
z"/>
<path fill="#858585" opacity="1.000000" stroke="none" 
	d="
M2068.655273,1315.529053 
	C2068.142822,1312.126343 2068.335938,1308.353882 2069.269043,1304.253662 
	C2069.792969,1307.670532 2069.577148,1311.414795 2068.655273,1315.529053 
z"/>
<path fill="#8A7866" opacity="1.000000" stroke="none" 
	d="
M2057.399658,1347.461792 
	C2057.514404,1345.925049 2058.085449,1344.053711 2059.303467,1342.006470 
	C2059.252197,1343.595947 2058.554199,1345.361572 2057.399658,1347.461792 
z"/>
<path fill="#8A7866" opacity="1.000000" stroke="none" 
	d="
M2044.185669,1373.596191 
	C2044.191528,1372.614868 2044.644287,1371.503906 2045.571533,1370.148804 
	C2045.574829,1371.092041 2045.103760,1372.279175 2044.185669,1373.596191 
z"/>
<path fill="#A78A6D" opacity="1.000000" stroke="none" 
	d="
M2008.189453,726.991638 
	C2006.379639,726.845947 2004.413208,726.006409 2002.233643,724.547241 
	C2004.024658,724.717651 2006.028809,725.507751 2008.189453,726.991638 
z"/>
<path fill="#8A7866" opacity="1.000000" stroke="none" 
	d="
M2034.468506,1387.911499 
	C2034.206421,1387.361816 2034.470093,1386.655762 2035.353516,1385.919556 
	C2035.646973,1386.511353 2035.320557,1387.133301 2034.468506,1387.911499 
z"/>
<path fill="#8A7866" opacity="1.000000" stroke="none" 
	d="
M2029.978882,743.465393 
	C2029.358643,743.739868 2028.698730,743.434692 2028.015503,742.549255 
	C2028.641113,742.274597 2029.290283,742.580139 2029.978882,743.465393 
z"/>
<path fill="#8A7866" opacity="1.000000" stroke="none" 
	d="
M2037.996582,751.420288 
	C2037.435547,751.683594 2036.788574,751.386475 2036.076172,750.512573 
	C2036.644165,750.243896 2037.277344,750.551880 2037.996582,751.420288 
z"/>
<path fill="#050505" opacity="1.000000" stroke="none" 
	d="
M1813.638916,2096.203857 
	C1793.396973,2103.093018 1773.404541,2102.808838 1752.799316,2101.259766 
	C1752.799316,2080.244629 1752.799316,2059.824707 1752.799316,2038.283813 
	C1759.684692,2038.064941 1766.233276,2037.443481 1772.739990,2037.740723 
	C1784.276611,2038.267822 1796.071777,2038.059814 1807.241699,2040.513550 
	C1823.106445,2043.998291 1832.974609,2058.555176 1829.331299,2077.240967 
	C1827.673096,2085.745605 1822.434204,2092.183350 1813.638916,2096.203857 
z"/>
<path fill="#050505" opacity="1.000000" stroke="none" 
	d="
M1768.152100,1982.350342 
	C1762.605957,1982.010010 1758.026367,1981.669800 1752.907349,1981.289429 
	C1752.907349,1964.760864 1752.907349,1948.633179 1752.907349,1931.194580 
	C1757.992920,1930.903442 1763.194092,1930.060181 1768.309448,1930.423584 
	C1779.808594,1931.240356 1791.430542,1931.822510 1802.693848,1934.056030 
	C1814.588501,1936.414795 1821.980469,1946.251343 1821.617798,1956.455444 
	C1821.227417,1967.440674 1813.434814,1977.330078 1801.671021,1979.397339 
	C1790.977539,1981.276611 1779.981445,1981.434082 1768.152100,1982.350342 
z"/>
<path fill="#020202" opacity="1.000000" stroke="none" 
	d="
M1005.652100,1975.541016 
	C1005.167908,1978.984863 1004.735962,1981.592163 1004.206116,1984.179199 
	C1001.425842,1997.756470 993.060974,2006.852051 980.344604,2011.256714 
	C961.489319,2017.787720 941.974121,2017.164673 922.065735,2015.276123 
	C922.065735,1987.437500 922.065735,1960.229248 922.065735,1932.089478 
	C941.022949,1931.394287 960.115051,1929.543457 978.577332,1936.175781 
	C996.447815,1942.595459 1005.873657,1955.357910 1005.652100,1975.541016 
z"/>
</svg>