<svg id="svg" version="1.1" xmlns="http://www.w3.org/2000/svg" xmlns:xlink="http://www.w3.org/1999/xlink" width="400" height="440.3669724770642" viewBox="0, 0, 400,440.3669724770642"><g id="svgg"><path id="path0" d="M55.299 110.867 C 55.384 197.828,55.486 214.162,55.947 214.316 C 56.410 214.470,56.471 198.559,56.338 111.698 L 56.182 8.898 117.791 8.615 C 151.676 8.460,216.300 8.303,261.400 8.266 L 343.400 8.200 343.762 107.600 C 344.113 204.344,344.008 219.520,342.928 227.153 C 342.731 228.552,342.794 228.869,343.240 228.720 C 343.663 228.579,343.800 227.682,343.800 225.067 C 343.800 222.560,343.938 221.600,344.300 221.600 C 344.699 221.600,344.800 199.933,344.800 114.600 L 344.800 7.600 199.999 7.600 L 55.198 7.600 55.299 110.867 M70.181 21.306 C 70.073 21.587,70.042 67.263,70.111 122.808 L 70.237 223.800 71.316 230.800 C 83.300 308.602,126.552 370.305,193.450 405.037 L 200.200 408.541 206.400 405.215 C 274.173 368.859,317.990 304.347,329.077 224.600 C 329.758 219.699,329.800 213.690,329.800 120.200 L 329.800 21.000 200.088 20.898 C 95.163 20.815,70.339 20.893,70.181 21.306 M325.121 120.895 C 325.257 225.096,325.393 220.051,321.980 238.036 C 308.388 309.674,265.215 368.085,201.993 400.377 L 200.185 401.300 195.993 399.199 C 129.423 365.830,85.078 301.972,75.594 225.823 C 74.822 219.622,74.800 216.805,74.800 123.823 L 74.800 28.200 199.900 28.295 L 325.000 28.390 325.121 120.895 M199.002 212.630 C 166.696 216.546,135.384 238.613,112.205 273.800 C 108.264 279.783,103.706 287.291,102.600 289.622 L 101.926 291.045 103.954 295.576 C 108.555 305.853,118.731 322.986,124.601 330.337 C 124.892 330.702,126.968 333.301,129.214 336.114 C 140.184 349.849,152.276 361.562,169.000 374.652 C 175.200 379.504,186.748 387.279,187.274 386.954 C 189.231 385.745,204.651 364.605,210.874 354.600 C 240.519 306.941,236.124 271.869,200.198 269.402 C 177.254 267.827,147.735 281.156,117.032 306.957 C 114.679 308.934,114.480 308.684,115.608 305.174 C 119.259 293.821,137.165 275.926,156.400 264.407 C 179.911 250.328,207.786 244.885,227.991 250.427 C 250.128 256.500,251.541 299.506,230.896 338.800 C 223.729 352.439,207.519 375.297,200.827 381.200 C 199.956 381.968,192.725 390.045,192.847 390.114 C 192.931 390.161,194.022 390.727,195.272 391.371 L 197.543 392.541 199.847 390.771 C 201.114 389.797,204.784 386.390,208.004 383.200 C 245.884 345.668,261.762 300.170,250.572 261.217 C 249.191 256.412,249.113 256.489,253.201 258.644 C 278.582 272.026,280.774 303.315,259.113 343.000 C 256.510 347.767,256.430 347.898,251.758 355.000 C 247.599 361.322,247.655 361.211,249.445 359.608 C 257.879 352.058,259.987 349.585,262.744 344.000 C 280.069 308.909,283.221 280.389,272.744 253.506 C 268.074 241.521,257.518 228.334,247.154 221.537 C 235.191 213.690,217.403 210.400,199.002 212.630 M225.800 218.411 C 250.668 223.895,267.499 242.173,272.936 269.600 C 274.764 278.824,274.713 279.556,272.590 274.518 C 268.349 264.452,261.549 257.435,248.571 249.731 L 244.802 247.494 244.011 244.847 C 241.338 235.914,234.525 227.547,223.443 219.588 C 220.422 217.419,220.691 217.285,225.800 218.411 M56.223 218.920 C 55.852 219.744,56.120 228.254,56.530 228.663 C 57.130 229.263,57.193 228.301,56.877 223.363 C 56.672 220.152,56.424 218.472,56.223 218.920 M210.561 219.400 C 223.121 224.127,232.025 232.181,235.414 241.882 C 236.602 245.282,236.668 245.226,232.510 244.358 C 218.083 241.346,200.359 242.594,185.299 247.681 C 181.371 249.008,180.723 248.978,181.700 247.512 C 184.331 243.563,188.424 241.568,201.689 237.765 C 215.382 233.839,218.262 231.672,215.998 226.997 C 215.112 225.166,211.392 221.472,208.700 219.750 C 206.103 218.088,206.753 217.966,210.561 219.400 M57.249 232.933 C 57.212 235.604,57.322 236.423,57.700 236.290 C 58.225 236.104,58.214 235.274,57.641 231.600 C 57.303 229.433,57.297 229.454,57.249 232.933 M341.890 234.200 C 341.499 236.620,341.073 239.095,340.943 239.700 C 340.762 240.544,340.857 240.800,341.353 240.800 C 341.869 240.800,342.000 240.362,342.000 238.633 C 342.000 237.442,342.188 236.404,342.419 236.327 C 342.677 236.241,342.792 234.965,342.719 232.994 L 342.600 229.800 341.890 234.200 M58.000 240.133 C 58.000 242.178,58.164 243.600,58.400 243.600 C 58.620 243.600,58.800 244.410,58.800 245.400 C 58.800 246.790,58.947 247.200,59.445 247.200 C 60.171 247.200,60.090 246.082,58.941 240.200 C 58.121 236.003,58.000 235.994,58.000 240.133 M339.639 246.335 C 339.116 249.121,338.551 251.760,338.382 252.200 C 338.214 252.640,337.590 255.070,336.995 257.600 C 332.298 277.585,321.384 303.311,308.782 324.104 C 292.980 350.176,269.940 376.696,249.795 392.000 C 249.071 392.550,247.066 394.089,245.340 395.420 C 241.905 398.067,231.746 405.200,231.411 405.200 C 231.296 405.200,230.346 405.806,229.301 406.548 C 227.532 407.802,221.228 411.613,216.600 414.227 C 214.164 415.602,210.700 417.433,205.400 420.147 C 201.578 422.104,201.462 422.201,202.789 422.330 C 203.553 422.404,204.243 422.270,204.323 422.032 C 204.402 421.794,204.727 421.600,205.046 421.600 C 205.364 421.600,205.729 421.330,205.855 421.000 C 205.988 420.655,206.585 420.400,207.260 420.400 C 207.905 420.400,208.820 420.040,209.292 419.600 C 209.764 419.160,210.477 418.800,210.875 418.800 C 211.274 418.800,211.600 418.530,211.600 418.200 C 211.600 417.827,211.978 417.600,212.600 417.600 C 213.150 417.600,213.600 417.420,213.600 417.200 C 213.600 416.980,213.960 416.800,214.400 416.800 C 214.840 416.800,215.200 416.620,215.200 416.400 C 215.200 416.180,215.650 416.000,216.200 416.000 C 216.750 416.000,217.200 415.820,217.200 415.600 C 217.200 415.380,217.427 415.200,217.704 415.200 C 217.981 415.200,218.693 414.750,219.287 414.200 C 219.880 413.650,220.643 413.200,220.983 413.200 C 221.322 413.200,221.600 413.020,221.600 412.800 C 221.600 412.580,222.050 412.400,222.600 412.400 C 223.222 412.400,223.600 412.173,223.600 411.800 C 223.600 411.442,223.968 411.200,224.512 411.200 C 225.013 411.200,225.683 410.840,226.000 410.400 C 226.317 409.960,226.815 409.600,227.107 409.600 C 227.399 409.600,228.055 409.150,228.565 408.600 C 229.075 408.050,229.786 407.600,230.146 407.600 C 230.506 407.600,230.800 407.450,230.800 407.268 C 230.800 407.085,231.295 406.684,231.900 406.376 C 232.505 406.069,233.430 405.408,233.955 404.909 C 234.480 404.409,235.245 404.000,235.655 404.000 C 236.065 404.000,236.400 403.820,236.400 403.600 C 236.400 403.380,236.735 403.200,237.144 403.200 C 237.553 403.200,238.226 402.750,238.639 402.200 C 239.052 401.650,239.688 401.200,240.053 401.200 C 240.418 401.200,241.140 400.736,241.658 400.169 C 243.496 398.158,244.158 397.600,244.704 397.600 C 245.360 397.600,246.400 396.636,246.400 396.029 C 246.400 395.793,246.670 395.600,247.000 395.600 C 247.330 395.600,247.600 395.420,247.600 395.200 C 247.600 394.980,247.894 394.800,248.253 394.800 C 248.612 394.800,249.500 394.170,250.226 393.400 C 250.952 392.630,251.769 392.000,252.042 392.000 C 252.314 392.000,253.489 391.010,254.651 389.800 C 255.861 388.541,257.115 387.600,257.583 387.600 C 258.032 387.600,258.400 387.407,258.400 387.171 C 258.400 386.691,259.390 385.600,259.825 385.600 C 260.178 385.600,261.999 383.507,262.000 383.100 C 262.000 382.935,262.227 382.800,262.505 382.800 C 262.783 382.800,263.368 382.315,263.805 381.722 C 264.242 381.130,264.941 380.365,265.357 380.022 C 266.717 378.903,268.400 377.089,268.400 376.741 C 268.400 376.553,268.588 376.400,268.818 376.400 C 269.048 376.400,269.678 375.958,270.218 375.418 C 270.758 374.878,271.200 374.248,271.200 374.018 C 271.200 373.788,271.362 373.600,271.560 373.600 C 272.029 373.600,274.800 370.829,274.800 370.360 C 274.800 370.162,274.988 370.000,275.218 370.000 C 275.448 370.000,276.078 369.558,276.618 369.018 C 277.158 368.478,277.600 367.848,277.600 367.618 C 277.600 367.388,277.788 367.200,278.018 367.200 C 278.561 367.200,280.400 365.361,280.400 364.818 C 280.400 364.588,280.535 364.400,280.700 364.400 C 281.332 364.398,283.200 362.475,283.200 361.825 C 283.200 361.158,284.089 360.000,284.600 360.000 C 285.015 360.000,286.000 358.895,286.000 358.429 C 286.000 358.193,286.180 358.000,286.400 358.000 C 286.620 358.000,286.800 357.744,286.800 357.430 C 286.800 357.117,288.060 355.598,289.600 354.055 C 291.140 352.512,292.400 351.034,292.400 350.771 C 292.400 350.507,292.850 349.875,293.400 349.365 C 293.950 348.855,294.400 348.199,294.400 347.907 C 294.400 347.615,294.760 347.117,295.200 346.800 C 295.640 346.483,296.000 346.070,296.000 345.883 C 296.000 345.401,297.061 344.400,297.571 344.400 C 297.807 344.400,298.000 343.990,298.000 343.488 C 298.000 342.987,298.360 342.317,298.800 342.000 C 299.240 341.683,299.600 341.185,299.600 340.893 C 299.600 340.601,300.050 339.945,300.600 339.435 C 301.150 338.925,301.600 338.214,301.600 337.854 C 301.600 337.494,301.780 337.200,302.000 337.200 C 302.220 337.200,302.400 336.949,302.400 336.643 C 302.400 336.336,302.670 335.982,303.000 335.855 C 303.330 335.729,303.600 335.432,303.600 335.196 C 303.600 334.960,303.960 334.380,304.400 333.908 C 304.840 333.436,305.200 332.723,305.200 332.325 C 305.200 331.926,305.380 331.600,305.600 331.600 C 305.820 331.600,306.000 331.150,306.000 330.600 C 306.000 330.050,306.193 329.600,306.429 329.600 C 307.106 329.600,308.000 328.528,308.000 327.717 C 308.000 327.310,308.369 326.712,308.819 326.388 C 309.609 325.821,310.800 323.856,310.800 323.120 C 310.800 322.924,311.250 322.314,311.800 321.764 C 312.350 321.214,312.800 320.502,312.800 320.182 C 312.800 319.862,312.980 319.600,313.200 319.600 C 313.420 319.600,313.600 319.251,313.600 318.824 C 313.600 318.397,313.780 317.936,314.000 317.800 C 314.220 317.664,314.400 317.203,314.400 316.776 C 314.400 316.349,314.580 316.000,314.800 316.000 C 315.020 316.000,315.200 315.550,315.200 315.000 C 315.200 314.378,315.427 314.000,315.800 314.000 C 316.130 314.000,316.400 313.722,316.400 313.383 C 316.400 313.044,316.760 312.380,317.200 311.908 C 317.640 311.436,318.000 310.742,318.000 310.367 C 318.000 309.992,318.270 309.582,318.600 309.455 C 318.930 309.329,319.200 308.859,319.200 308.413 C 319.200 307.966,319.380 307.600,319.600 307.600 C 319.820 307.600,320.000 307.240,320.000 306.800 C 320.000 306.360,320.180 306.000,320.400 306.000 C 320.620 306.000,320.800 305.550,320.800 305.000 C 320.800 304.450,320.980 304.000,321.200 304.000 C 321.420 304.000,321.600 303.659,321.600 303.243 C 321.600 302.826,321.870 302.382,322.200 302.255 C 322.551 302.121,322.800 301.521,322.800 300.813 C 322.800 300.146,322.980 299.600,323.200 299.600 C 323.420 299.600,323.600 299.150,323.600 298.600 C 323.600 298.050,323.780 297.600,324.000 297.600 C 324.220 297.600,324.400 297.259,324.400 296.843 C 324.400 296.426,324.670 295.982,325.000 295.855 C 325.330 295.729,325.600 295.259,325.600 294.813 C 325.600 294.366,325.780 294.000,326.000 294.000 C 326.220 294.000,326.400 293.370,326.400 292.600 C 326.400 291.830,326.580 291.200,326.800 291.200 C 327.020 291.200,327.200 290.917,327.200 290.571 C 327.200 290.226,327.480 289.663,327.823 289.320 C 328.166 288.977,328.351 288.450,328.236 288.148 C 328.116 287.837,328.279 287.600,328.613 287.600 C 329.017 287.600,329.200 287.164,329.200 286.200 C 329.200 285.430,329.380 284.800,329.600 284.800 C 329.820 284.800,330.000 284.170,330.000 283.400 C 330.000 282.630,330.180 282.000,330.400 282.000 C 330.620 282.000,330.800 281.659,330.800 281.243 C 330.800 280.826,331.070 280.382,331.400 280.255 C 331.811 280.098,332.000 279.455,332.000 278.213 C 332.000 277.216,332.180 276.400,332.400 276.400 C 332.620 276.400,332.800 276.040,332.800 275.600 C 332.800 275.160,332.980 274.800,333.200 274.800 C 333.420 274.800,333.600 274.009,333.600 273.043 C 333.600 271.850,333.793 271.212,334.200 271.055 C 334.551 270.921,334.800 270.321,334.800 269.613 C 334.800 268.946,334.980 268.400,335.200 268.400 C 335.420 268.400,335.600 267.770,335.600 267.000 C 335.600 266.230,335.780 265.600,336.000 265.600 C 336.220 265.600,336.400 264.970,336.400 264.200 C 336.400 263.430,336.580 262.800,336.800 262.800 C 337.020 262.800,337.200 261.829,337.200 260.643 C 337.200 259.094,337.369 258.421,337.800 258.255 C 338.211 258.098,338.400 257.455,338.400 256.213 C 338.400 255.216,338.580 254.400,338.800 254.400 C 339.020 254.400,339.200 253.860,339.200 253.200 C 339.200 252.540,339.380 252.000,339.600 252.000 C 339.828 252.000,340.000 250.814,340.000 249.243 C 340.000 247.161,340.147 246.429,340.600 246.255 C 341.032 246.090,341.200 245.413,341.200 243.836 C 341.200 240.131,340.634 241.038,339.639 246.335 M60.036 250.300 C 60.016 251.724,60.172 252.800,60.400 252.800 C 60.629 252.800,60.800 254.000,60.800 255.600 C 60.800 257.200,60.971 258.400,61.200 258.400 C 61.420 258.400,61.600 258.921,61.600 259.557 C 61.600 260.217,61.858 260.813,62.200 260.945 C 62.551 261.079,62.800 261.679,62.800 262.387 C 62.800 263.054,62.980 263.600,63.200 263.600 C 63.420 263.600,63.600 264.399,63.600 265.376 C 63.600 266.353,63.780 267.264,64.000 267.400 C 64.220 267.536,64.400 268.177,64.400 268.824 C 64.400 269.471,64.580 270.000,64.800 270.000 C 65.020 270.000,65.200 270.546,65.200 271.213 C 65.200 271.921,65.449 272.521,65.800 272.655 C 66.207 272.812,66.400 273.450,66.400 274.643 C 66.400 275.609,66.580 276.400,66.800 276.400 C 67.020 276.400,67.200 277.030,67.200 277.800 C 67.200 278.570,67.380 279.200,67.600 279.200 C 67.820 279.200,68.000 279.830,68.000 280.600 C 68.000 281.578,68.181 282.000,68.600 282.000 C 69.019 282.000,69.200 282.422,69.200 283.400 C 69.200 284.170,69.380 284.800,69.600 284.800 C 69.820 284.800,70.000 285.430,70.000 286.200 C 70.000 286.970,70.180 287.600,70.400 287.600 C 70.620 287.600,70.800 287.855,70.800 288.168 C 70.800 288.881,72.098 291.194,72.500 291.197 C 72.665 291.199,72.800 291.830,72.800 292.600 C 72.800 293.370,72.980 294.000,73.200 294.000 C 73.420 294.000,73.600 294.349,73.600 294.776 C 73.600 295.203,73.780 295.664,74.000 295.800 C 74.220 295.936,74.400 296.557,74.400 297.181 C 74.400 297.819,74.662 298.415,75.000 298.545 C 75.330 298.671,75.600 299.141,75.600 299.587 C 75.600 300.034,75.780 300.400,76.000 300.400 C 76.220 300.400,76.400 300.850,76.400 301.400 C 76.400 301.950,76.580 302.400,76.800 302.400 C 77.020 302.400,77.200 302.760,77.200 303.200 C 77.200 303.644,77.467 304.000,77.800 304.000 C 78.173 304.000,78.400 304.378,78.400 305.000 C 78.400 305.550,78.580 306.000,78.800 306.000 C 79.020 306.000,79.200 306.360,79.200 306.800 C 79.200 307.240,79.380 307.600,79.600 307.600 C 79.820 307.600,80.000 308.050,80.000 308.600 C 80.000 309.150,80.180 309.600,80.400 309.600 C 80.620 309.600,80.800 309.966,80.800 310.413 C 80.800 310.859,81.070 311.329,81.400 311.455 C 81.730 311.582,82.000 312.026,82.000 312.443 C 82.000 312.859,82.180 313.200,82.400 313.200 C 82.620 313.200,82.800 313.650,82.800 314.200 C 82.800 314.750,82.980 315.200,83.200 315.200 C 83.420 315.200,83.600 315.560,83.600 316.000 C 83.600 316.444,83.867 316.800,84.200 316.800 C 84.558 316.800,84.800 317.168,84.800 317.712 C 84.800 318.213,85.160 318.883,85.600 319.200 C 86.040 319.517,86.400 320.110,86.400 320.517 C 86.400 320.924,86.625 321.508,86.900 321.815 C 88.087 323.138,88.400 323.591,88.400 323.983 C 88.400 324.212,88.580 324.400,88.800 324.400 C 89.020 324.400,89.200 324.760,89.200 325.200 C 89.200 325.640,89.380 326.000,89.600 326.000 C 89.820 326.000,90.000 326.366,90.000 326.813 C 90.000 327.259,90.270 327.729,90.600 327.855 C 90.930 327.982,91.200 328.426,91.200 328.843 C 91.200 329.259,91.380 329.600,91.600 329.600 C 91.820 329.600,92.000 329.870,92.000 330.200 C 92.000 330.530,92.180 330.800,92.400 330.800 C 92.620 330.800,92.800 331.160,92.800 331.600 C 92.800 332.044,93.067 332.400,93.400 332.400 C 93.730 332.400,94.000 332.670,94.000 333.000 C 94.000 333.330,94.180 333.600,94.400 333.600 C 94.620 333.600,94.800 333.885,94.800 334.233 C 94.800 334.582,95.430 335.479,96.200 336.226 C 96.970 336.974,97.600 337.859,97.600 338.193 C 97.600 338.527,97.780 338.800,98.000 338.800 C 98.220 338.800,98.400 339.173,98.400 339.629 C 98.400 340.413,99.243 341.600,99.800 341.600 C 100.215 341.600,101.200 342.705,101.200 343.171 C 101.200 343.407,101.380 343.600,101.600 343.600 C 101.820 343.600,102.000 343.879,102.000 344.219 C 102.000 344.560,102.450 345.255,103.000 345.765 C 103.550 346.275,104.000 346.912,104.000 347.181 C 104.000 347.449,104.990 348.636,106.200 349.817 C 107.448 351.036,108.400 352.319,108.400 352.783 C 108.400 353.232,108.604 353.600,108.853 353.600 C 109.332 353.600,111.199 355.589,111.200 356.100 C 111.200 356.265,111.393 356.400,111.629 356.400 C 112.273 356.400,113.200 357.456,113.200 358.190 C 113.200 358.908,114.927 360.800,115.582 360.800 C 115.812 360.800,116.000 360.953,116.000 361.141 C 116.000 361.489,117.683 363.303,119.043 364.422 C 119.459 364.765,120.158 365.530,120.595 366.122 C 121.032 366.715,121.617 367.200,121.895 367.200 C 122.173 367.200,122.400 367.388,122.400 367.618 C 122.400 368.161,124.239 370.000,124.782 370.000 C 125.012 370.000,125.200 370.162,125.200 370.360 C 125.200 370.829,127.971 373.600,128.440 373.600 C 128.638 373.600,128.800 373.788,128.800 374.018 C 128.800 374.561,130.639 376.400,131.182 376.400 C 131.412 376.400,131.600 376.562,131.600 376.760 C 131.600 377.229,134.371 380.000,134.840 380.000 C 135.038 380.000,135.200 380.193,135.200 380.429 C 135.200 381.085,136.262 382.000,137.025 382.000 C 137.675 382.000,139.598 383.868,139.600 384.500 C 139.600 384.665,139.788 384.800,140.018 384.800 C 140.481 384.800,142.400 386.603,142.400 387.038 C 142.400 387.446,143.723 388.373,144.327 388.387 C 144.617 388.394,145.448 389.030,146.174 389.800 C 146.900 390.570,147.706 391.200,147.965 391.200 C 148.223 391.200,148.920 391.650,149.513 392.200 C 150.107 392.750,150.779 393.200,151.008 393.200 C 151.236 393.200,151.683 393.560,152.000 394.000 C 152.317 394.440,152.730 394.800,152.917 394.800 C 153.399 394.800,154.400 395.861,154.400 396.371 C 154.400 396.607,154.805 396.804,155.300 396.809 C 155.824 396.814,156.699 397.398,157.396 398.209 C 158.054 398.974,158.909 399.600,159.296 399.600 C 159.683 399.600,160.000 399.780,160.000 400.000 C 160.000 400.220,160.360 400.400,160.800 400.400 C 161.240 400.400,161.600 400.580,161.600 400.800 C 161.600 401.020,161.793 401.200,162.029 401.200 C 162.582 401.200,163.600 402.218,163.600 402.771 C 163.600 403.007,163.949 403.200,164.376 403.200 C 164.803 403.200,165.264 403.380,165.400 403.600 C 165.536 403.820,165.919 404.000,166.250 404.000 C 166.582 404.000,167.448 404.630,168.174 405.400 C 168.900 406.170,169.788 406.800,170.147 406.800 C 170.506 406.800,170.800 406.980,170.800 407.200 C 170.800 407.420,171.173 407.600,171.629 407.600 C 172.514 407.600,173.600 408.466,173.600 409.171 C 173.600 409.407,174.010 409.600,174.512 409.600 C 175.013 409.600,175.683 409.960,176.000 410.400 C 176.317 410.840,176.987 411.200,177.488 411.200 C 178.032 411.200,178.400 411.442,178.400 411.800 C 178.400 412.133,178.756 412.400,179.200 412.400 C 179.640 412.400,180.000 412.580,180.000 412.800 C 180.000 413.020,180.368 413.200,180.818 413.200 C 181.268 413.200,182.086 413.650,182.636 414.200 C 183.186 414.750,183.898 415.200,184.218 415.200 C 184.538 415.200,184.800 415.380,184.800 415.600 C 184.800 415.820,185.160 416.000,185.600 416.000 C 186.040 416.000,186.400 416.180,186.400 416.400 C 186.400 416.620,186.807 416.800,187.305 416.800 C 187.804 416.800,188.547 417.249,188.961 417.800 C 189.430 418.424,190.109 418.800,190.768 418.800 C 191.365 418.800,192.074 419.148,192.400 419.600 C 192.717 420.040,193.387 420.400,193.888 420.400 C 194.390 420.400,194.800 420.572,194.800 420.781 C 194.800 421.444,197.472 422.461,198.863 422.328 C 200.096 422.210,199.827 422.006,195.400 419.707 C 186.441 415.053,175.484 408.719,170.496 405.311 C 169.119 404.370,167.905 403.600,167.799 403.600 C 167.306 403.600,147.680 389.385,146.800 388.391 C 146.690 388.267,144.980 386.825,143.000 385.188 C 137.670 380.779,137.595 380.712,130.425 373.972 C 115.013 359.484,102.794 344.500,90.325 324.800 C 82.148 311.882,73.156 292.440,67.953 276.430 C 64.495 265.789,64.083 264.377,62.572 258.000 C 61.764 254.590,60.871 250.900,60.588 249.800 L 60.073 247.800 60.036 250.300 " stroke="none" fill="#f5f8f5" fill-rule="evenodd"></path><path id="path1" d="M199.100 28.301 L 74.800 28.401 74.800 123.924 C 74.800 216.805,74.822 219.622,75.594 225.823 C 85.078 301.972,129.423 365.830,195.993 399.199 L 200.185 401.300 201.993 400.377 C 261.062 370.207,302.451 317.611,318.976 251.721 C 321.124 243.154,322.696 235.029,324.300 224.200 C 325.057 219.084,325.584 28.400,324.841 28.400 C 324.634 28.400,324.226 28.355,323.933 28.300 C 323.640 28.245,267.465 28.245,199.100 28.301 M199.851 34.700 C 200.037 35.085,200.246 42.218,200.316 50.551 C 200.417 62.471,200.558 65.815,200.975 66.232 C 201.398 66.655,204.707 66.764,217.253 66.766 L 233.000 66.770 233.097 72.685 C 233.150 75.938,233.101 79.005,232.989 79.500 L 232.785 80.400 221.842 80.400 C 215.824 80.400,210.336 80.513,209.646 80.651 L 208.391 80.902 208.405 114.109 C 208.412 132.372,208.309 147.424,208.176 147.558 C 207.428 148.305,200.450 147.835,200.232 147.023 C 200.110 146.570,200.009 128.290,200.006 106.400 L 200.000 66.600 184.558 66.714 C 174.418 66.788,168.945 66.686,168.620 66.417 C 167.417 65.418,166.548 75.996,167.543 79.536 L 167.806 80.472 179.028 80.419 C 185.200 80.391,190.553 80.484,190.925 80.626 C 191.551 80.867,191.600 83.302,191.600 114.162 L 191.600 147.439 192.900 147.848 C 194.216 148.261,197.612 148.287,198.257 147.888 C 199.967 146.832,200.065 147.862,200.017 166.297 C 199.992 175.956,200.087 184.161,200.228 184.529 C 200.467 185.153,204.624 185.200,259.035 185.200 L 317.585 185.200 317.826 186.163 C 318.179 187.569,317.311 219.113,316.867 221.000 C 316.661 221.880,316.096 225.300,315.612 228.600 C 315.129 231.900,314.376 236.094,313.940 237.920 C 312.955 242.035,312.402 244.863,312.123 247.200 C 312.005 248.190,311.792 249.090,311.651 249.200 C 311.303 249.471,309.992 254.777,309.997 255.900 C 309.998 256.395,309.820 256.800,309.600 256.800 C 309.380 256.800,309.200 257.077,309.200 257.416 C 309.200 257.755,308.828 259.240,308.373 260.716 C 307.918 262.192,307.282 264.300,306.959 265.400 C 306.637 266.500,306.131 268.030,305.837 268.800 C 304.883 271.294,303.733 274.562,303.234 276.200 C 302.966 277.080,302.599 278.160,302.418 278.600 C 302.236 279.040,301.501 280.840,300.784 282.600 C 299.286 286.274,297.216 291.072,295.551 294.728 C 294.918 296.118,294.400 297.423,294.400 297.628 C 294.400 297.833,294.220 298.000,294.000 298.000 C 293.780 298.000,293.600 298.362,293.600 298.805 C 293.600 299.563,292.892 301.157,292.359 301.600 C 292.227 301.710,291.782 302.520,291.371 303.400 C 290.451 305.369,285.158 314.924,284.835 315.200 C 284.452 315.526,283.179 317.716,282.684 318.900 C 282.431 319.505,282.106 320.000,281.961 320.000 C 281.816 320.000,281.460 320.585,281.171 321.300 C 280.881 322.015,280.355 322.870,280.001 323.200 C 279.648 323.530,278.925 324.520,278.394 325.400 C 277.864 326.280,277.198 327.238,276.915 327.529 C 276.632 327.819,276.400 328.179,276.400 328.329 C 276.399 328.478,275.949 329.123,275.400 329.762 C 274.850 330.401,274.400 331.031,274.400 331.162 C 274.399 331.293,273.928 331.940,273.352 332.600 C 272.776 333.260,271.831 334.518,271.252 335.395 C 269.995 337.300,269.302 338.188,268.100 339.432 C 267.605 339.944,267.200 340.515,267.200 340.700 C 267.200 340.885,266.255 342.053,265.100 343.294 C 263.945 344.535,262.460 346.229,261.800 347.058 C 259.182 350.347,247.058 362.257,248.231 360.387 C 248.434 360.064,250.021 357.640,251.758 355.000 C 255.925 348.665,255.994 348.552,259.530 342.200 C 280.737 304.098,278.297 271.876,253.201 258.644 C 249.113 256.489,249.191 256.412,250.572 261.217 C 255.012 276.673,255.099 295.856,250.806 312.594 C 245.256 334.229,233.436 355.295,215.452 375.600 C 212.459 378.980,202.155 388.996,199.847 390.771 L 197.543 392.541 195.272 391.371 C 194.022 390.727,192.931 390.161,192.847 390.114 C 192.725 390.045,199.956 381.968,200.827 381.200 C 207.519 375.297,223.729 352.439,230.896 338.800 C 251.541 299.506,250.128 256.500,227.991 250.427 C 207.786 244.885,179.911 250.328,156.400 264.407 C 135.850 276.713,117.452 295.692,115.014 307.100 C 114.623 308.929,114.928 308.787,119.200 305.149 C 162.299 268.447,209.733 258.263,225.618 282.302 C 235.504 297.262,230.120 323.659,210.874 354.600 C 204.823 364.328,193.385 380.150,188.453 385.613 L 187.000 387.222 183.200 384.697 C 161.639 370.371,143.630 354.164,129.214 336.114 C 126.968 333.301,124.892 330.702,124.601 330.337 C 118.731 322.986,108.555 305.853,103.954 295.576 L 101.926 291.045 102.600 289.622 C 110.973 271.971,131.733 246.853,148.495 234.096 C 163.305 222.824,186.683 212.800,198.163 212.800 C 198.953 212.800,199.602 212.665,199.605 212.500 C 199.827 199.069,199.560 186.303,199.048 185.790 C 198.532 185.275,191.037 185.200,140.229 185.200 L 82.000 185.200 82.006 110.217 C 82.010 68.976,82.119 34.956,82.249 34.617 C 82.638 33.602,199.363 33.685,199.851 34.700 M154.196 66.406 C 154.005 66.715,152.007 66.829,147.859 66.770 C 144.526 66.722,141.305 66.709,140.700 66.741 L 139.600 66.800 139.600 90.920 C 139.600 116.644,139.256 124.381,137.963 127.760 C 137.240 129.650,135.585 132.000,134.977 132.000 C 134.833 132.000,134.181 132.450,133.527 133.000 C 132.873 133.550,132.003 134.000,131.593 134.000 C 131.183 134.000,130.736 134.180,130.600 134.400 C 130.464 134.620,129.564 134.800,128.600 134.800 C 127.636 134.800,126.736 134.980,126.600 135.200 C 126.464 135.420,125.294 135.600,124.000 135.600 C 122.706 135.600,121.536 135.420,121.400 135.200 C 121.264 134.980,120.351 134.800,119.371 134.800 C 118.391 134.800,117.277 134.640,116.895 134.444 C 116.513 134.249,115.496 133.754,114.636 133.344 C 107.521 129.958,107.221 128.385,107.191 94.230 C 107.179 79.497,107.011 67.254,106.818 67.022 C 106.592 66.749,103.656 66.614,98.534 66.640 L 90.600 66.681 90.608 94.840 C 90.619 128.556,90.670 129.135,94.307 136.189 C 95.729 138.949,100.379 144.000,101.497 144.000 C 101.774 144.000,102.000 144.151,102.000 144.335 C 102.000 144.519,103.035 145.165,104.300 145.770 C 105.565 146.376,106.913 147.035,107.295 147.236 C 107.677 147.436,108.442 147.600,108.995 147.600 C 109.548 147.600,110.000 147.780,110.000 148.000 C 110.000 148.220,110.675 148.406,111.500 148.414 C 112.325 148.422,114.170 148.685,115.600 149.000 C 118.537 149.646,125.511 149.738,130.000 149.191 C 135.696 148.496,136.800 148.295,136.800 147.948 C 136.800 147.757,137.430 147.600,138.200 147.600 C 138.970 147.600,139.600 147.420,139.600 147.200 C 139.600 146.980,139.964 146.800,140.408 146.800 C 141.239 146.800,144.495 144.948,144.733 144.340 C 144.807 144.153,145.302 144.000,145.833 144.000 C 146.365 144.000,146.800 143.836,146.800 143.635 C 146.800 143.434,147.756 142.306,148.924 141.129 C 152.491 137.533,155.200 131.261,155.200 126.596 C 155.200 125.696,155.381 124.779,155.603 124.557 C 156.387 123.773,155.929 66.236,155.137 66.083 C 154.773 66.013,154.349 66.158,154.196 66.406 M284.200 66.743 C 287.592 67.212,290.972 68.039,291.447 68.514 C 291.605 68.671,292.153 68.800,292.667 68.800 C 293.180 68.800,293.602 68.935,293.605 69.100 C 293.607 69.265,294.321 69.741,295.191 70.158 C 296.061 70.575,297.132 71.250,297.570 71.658 C 298.008 72.066,298.554 72.400,298.783 72.400 C 299.012 72.400,299.200 72.580,299.200 72.800 C 299.200 73.020,299.396 73.200,299.635 73.200 C 300.110 73.200,303.558 76.800,303.584 77.322 C 303.593 77.499,304.120 78.200,304.756 78.881 C 307.363 81.670,310.165 88.422,311.446 95.000 C 312.298 99.374,312.502 115.952,311.737 118.600 C 311.482 119.480,310.974 121.280,310.608 122.600 C 309.326 127.220,306.420 133.628,304.926 135.129 C 304.637 135.419,304.400 135.780,304.400 135.930 C 304.400 136.295,300.512 140.400,300.166 140.400 C 300.016 140.400,299.603 140.715,299.247 141.100 C 298.203 142.230,293.714 144.573,289.800 146.030 C 286.789 147.152,283.390 147.340,263.700 147.474 L 243.200 147.614 243.200 107.440 C 243.200 85.344,243.311 66.976,243.447 66.621 C 243.745 65.845,278.469 65.949,284.200 66.743 M260.700 80.432 C 259.674 81.030,259.608 133.364,260.633 133.757 C 263.138 134.719,281.728 133.786,284.161 132.577 C 284.800 132.260,285.563 132.000,285.857 132.000 C 288.022 132.000,292.481 126.108,293.730 121.600 C 295.257 116.084,295.694 103.643,294.567 97.800 C 294.227 96.040,293.812 93.851,293.643 92.935 C 293.475 92.019,293.036 90.810,292.669 90.249 C 292.301 89.687,292.000 89.032,292.000 88.792 C 292.000 88.553,291.460 87.781,290.799 87.078 C 290.138 86.375,289.496 85.485,289.372 85.100 C 289.248 84.715,288.920 84.400,288.643 84.400 C 288.366 84.400,287.717 83.950,287.200 83.400 C 286.683 82.850,285.943 82.400,285.554 82.400 C 285.165 82.400,284.736 82.220,284.600 82.000 C 284.464 81.780,283.913 81.600,283.376 81.600 C 282.839 81.600,282.400 81.453,282.400 81.274 C 282.400 80.301,262.266 79.520,260.700 80.432 M92.667 164.267 C 92.520 164.413,92.400 167.380,92.400 170.859 L 92.400 177.185 93.429 177.443 C 94.853 177.801,95.138 177.364,95.278 174.600 C 95.388 172.428,95.489 172.187,96.339 172.067 C 97.274 171.935,97.495 172.132,101.073 176.318 C 102.147 177.573,102.264 177.613,103.561 177.157 C 104.679 176.765,104.817 176.600,104.334 176.239 C 104.010 175.998,103.489 175.215,103.175 174.500 C 102.861 173.785,102.400 173.200,102.149 173.200 C 101.142 173.200,101.312 171.680,102.428 170.701 C 104.593 168.801,104.373 166.304,101.908 164.801 C 100.595 164.000,93.352 163.582,92.667 164.267 M106.936 164.500 C 106.527 165.157,106.776 173.485,107.242 174.709 C 108.015 176.743,109.602 177.600,112.594 177.600 C 117.242 177.600,118.403 175.928,118.394 169.251 C 118.387 164.439,118.189 163.882,116.557 164.068 L 115.400 164.200 115.200 169.200 C 114.963 175.114,114.924 175.200,112.416 175.200 C 109.945 175.200,109.663 174.523,109.855 169.037 C 109.944 166.512,109.832 164.880,109.548 164.537 C 108.987 163.861,107.348 163.837,106.936 164.500 M123.298 165.207 C 121.513 166.832,120.637 169.164,120.919 171.541 C 121.148 173.476,122.305 175.993,122.969 175.997 C 123.171 175.999,123.653 176.286,124.039 176.635 C 125.427 177.892,132.800 177.681,132.800 176.385 C 132.800 176.173,133.070 176.000,133.400 176.000 C 133.877 176.000,134.000 175.420,134.000 173.183 L 134.000 170.366 130.900 170.483 C 127.178 170.623,126.073 172.075,129.500 172.323 C 130.820 172.419,131.200 172.606,131.200 173.161 C 131.200 175.409,125.936 176.152,124.548 174.100 C 123.105 171.966,123.880 166.800,125.644 166.800 C 126.034 166.800,126.464 166.620,126.600 166.400 C 126.736 166.180,127.287 166.000,127.824 166.000 C 128.361 166.000,128.800 166.180,128.800 166.400 C 128.800 166.620,129.083 166.800,129.429 166.800 C 129.774 166.800,130.327 167.070,130.657 167.400 C 131.932 168.675,133.747 168.048,133.335 166.474 C 132.639 163.811,125.784 162.946,123.298 165.207 M137.214 164.774 C 136.636 165.854,136.667 176.671,137.250 177.031 C 138.625 177.881,146.800 177.472,146.800 176.553 C 146.800 176.249,147.138 176.000,147.550 176.000 C 148.070 176.000,148.377 175.617,148.550 174.750 C 148.934 172.828,148.867 172.494,147.921 171.612 C 147.132 170.877,147.091 170.658,147.521 169.468 C 148.924 165.588,147.210 164.000,141.618 164.000 C 138.083 164.000,137.581 164.088,137.214 164.774 M150.400 164.381 C 150.400 165.039,151.313 166.800,151.654 166.800 C 151.833 166.800,152.279 167.385,152.646 168.100 C 153.012 168.815,153.440 169.490,153.596 169.600 C 154.332 170.118,154.965 172.029,155.172 174.358 C 155.562 178.733,158.000 179.086,158.000 174.767 C 158.000 172.358,159.070 169.474,160.248 168.709 C 160.494 168.550,160.921 167.875,161.196 167.209 C 161.472 166.544,161.945 166.000,162.249 166.000 C 162.570 166.000,162.800 165.583,162.800 165.000 C 162.800 162.744,159.620 164.328,157.781 167.500 C 156.741 169.294,156.363 169.156,154.779 166.404 C 153.471 164.133,150.400 162.714,150.400 164.381 M98.944 166.654 C 100.363 166.849,100.800 167.077,100.800 167.622 C 100.800 169.342,100.404 169.600,97.757 169.600 L 95.200 169.600 95.200 168.267 C 95.200 166.263,95.415 166.171,98.944 166.654 M145.311 167.582 C 145.621 168.768,143.957 169.668,141.726 169.521 C 139.977 169.406,139.881 169.337,139.747 168.100 L 139.607 166.800 142.357 166.800 C 144.749 166.800,145.133 166.902,145.311 167.582 M145.377 172.213 C 147.177 173.575,145.769 175.000,142.625 175.000 L 139.870 175.000 139.803 173.800 C 139.766 173.140,139.814 172.375,139.911 172.100 C 140.162 171.382,144.394 171.470,145.377 172.213 M259.800 194.000 C 259.664 194.220,259.281 194.400,258.948 194.400 C 255.118 194.400,254.599 204.426,258.349 205.979 C 259.037 206.264,259.600 206.676,259.600 206.894 C 259.600 207.134,260.720 207.227,262.434 207.130 C 265.392 206.963,268.224 204.928,267.904 203.200 C 267.699 202.093,265.664 202.221,265.139 203.374 C 264.882 203.938,264.376 204.400,264.016 204.400 C 263.655 204.400,263.162 204.598,262.920 204.840 C 261.431 206.329,258.800 203.470,258.800 200.364 C 258.800 196.342,262.556 194.238,264.752 197.030 C 265.728 198.270,267.337 198.241,267.517 196.981 C 267.842 194.710,260.996 192.065,259.800 194.000 M283.366 194.080 C 283.014 194.581,282.973 195.883,283.128 201.686 C 283.235 205.674,284.637 207.200,288.193 207.200 C 293.616 207.200,294.400 206.106,294.400 198.540 C 294.400 193.605,294.399 193.600,293.449 193.600 C 291.882 193.600,291.605 194.408,291.500 199.281 C 291.388 204.419,291.061 205.208,289.051 205.187 C 286.526 205.162,286.222 204.534,286.000 198.884 L 285.800 193.800 284.766 193.680 C 284.197 193.614,283.567 193.794,283.366 194.080 M297.949 194.261 C 297.224 195.134,297.163 205.661,297.876 206.637 C 298.487 207.472,307.621 207.337,307.904 206.488 C 307.996 206.212,308.293 205.764,308.563 205.493 C 309.857 204.197,309.499 201.308,307.995 200.915 C 307.046 200.666,306.987 200.274,307.800 199.600 C 308.430 199.077,308.638 195.783,308.094 194.951 C 307.255 193.668,298.912 193.101,297.949 194.261 M271.500 194.272 C 270.786 194.462,270.398 204.888,271.043 206.567 C 271.466 207.669,280.255 207.488,280.610 206.370 C 281.042 205.008,278.400 204.112,275.990 204.803 C 273.842 205.419,273.637 204.962,273.512 199.266 C 273.394 193.949,273.327 193.783,271.500 194.272 M305.635 197.500 L 305.899 198.800 303.149 198.800 L 300.400 198.800 300.400 197.667 C 300.400 195.329,305.162 195.177,305.635 197.500 M306.094 202.161 C 307.372 204.070,305.492 204.899,300.900 204.449 C 300.084 204.369,300.265 201.691,301.100 201.492 C 302.252 201.217,305.778 201.689,306.094 202.161 M221.600 217.932 C 221.600 218.115,222.429 218.860,223.443 219.588 C 234.525 227.547,241.338 235.914,244.011 244.847 L 244.802 247.494 248.571 249.731 C 261.549 257.435,268.349 264.452,272.590 274.518 C 274.713 279.556,274.764 278.824,272.936 269.600 C 267.502 242.185,250.657 223.893,225.800 218.411 C 221.649 217.496,221.600 217.490,221.600 217.932 M207.600 218.760 C 207.600 218.959,208.185 219.475,208.900 219.907 C 213.278 222.552,217.132 227.579,216.608 229.962 C 215.914 233.123,212.794 234.674,199.719 238.357 C 188.867 241.415,184.111 243.817,181.738 247.438 C 180.726 248.982,181.326 249.023,185.299 247.681 C 200.359 242.594,218.083 241.346,232.510 244.358 C 236.677 245.228,236.585 245.309,235.369 241.834 C 231.992 232.177,223.069 224.108,210.561 219.400 C 207.542 218.263,207.600 218.276,207.600 218.760 " stroke="none" fill="#078443" fill-rule="evenodd"></path><path id="path2" d="M165.800 8.422 C 131.700 8.565,93.090 8.709,80.000 8.741 L 56.200 8.800 56.200 113.762 C 56.200 171.490,56.308 218.657,56.439 218.576 C 56.571 218.494,56.798 220.717,56.945 223.514 C 57.092 226.311,57.404 229.860,57.639 231.400 C 57.874 232.940,58.129 234.920,58.206 235.800 C 58.282 236.680,58.610 238.660,58.933 240.200 C 59.257 241.740,59.646 243.990,59.797 245.200 C 60.084 247.492,60.266 248.330,62.616 258.200 C 64.091 264.396,64.531 265.899,67.953 276.430 C 73.156 292.440,82.148 311.882,90.325 324.800 C 102.794 344.500,115.013 359.484,130.425 373.972 C 137.595 380.712,137.670 380.779,143.000 385.188 C 144.980 386.825,146.690 388.267,146.800 388.391 C 147.680 389.385,167.306 403.600,167.799 403.600 C 167.905 403.600,169.119 404.370,170.496 405.311 C 172.911 406.961,182.480 412.722,186.600 415.005 C 190.400 417.112,200.500 422.400,200.723 422.400 C 201.102 422.400,212.695 416.432,216.600 414.227 C 221.228 411.613,227.532 407.802,229.301 406.548 C 230.346 405.806,231.296 405.200,231.411 405.200 C 231.746 405.200,241.905 398.067,245.340 395.420 C 247.066 394.089,249.071 392.550,249.795 392.000 C 284.346 365.752,317.891 317.612,332.300 273.600 C 334.997 265.362,335.628 263.223,336.845 258.200 C 337.485 255.560,338.194 252.770,338.422 252.000 C 338.650 251.230,339.242 248.479,339.738 245.886 C 340.234 243.294,340.734 241.267,340.850 241.383 C 340.965 241.499,341.057 241.010,341.053 240.297 C 341.050 239.583,341.441 236.740,341.922 233.977 C 342.404 231.214,342.915 227.305,343.058 225.290 C 343.204 223.229,343.479 221.725,343.686 221.853 C 344.059 222.084,343.720 8.917,343.345 8.312 C 343.133 7.968,261.663 8.018,165.800 8.422 M329.800 120.200 C 329.800 213.690,329.758 219.699,329.077 224.600 C 317.990 304.347,274.173 368.859,206.400 405.215 L 200.200 408.541 193.450 405.037 C 126.552 370.305,83.300 308.602,71.316 230.800 L 70.237 223.800 70.111 122.808 C 70.042 67.263,70.073 21.587,70.181 21.306 C 70.339 20.893,95.163 20.815,200.088 20.898 L 329.800 21.000 329.800 120.200 M82.249 34.617 C 82.119 34.956,82.010 68.976,82.006 110.217 L 82.000 185.200 140.229 185.200 C 191.047 185.200,198.532 185.275,199.048 185.791 C 199.545 186.288,199.637 188.435,199.629 199.338 L 199.619 212.295 207.709 212.098 C 231.198 211.525,247.283 217.968,259.948 233.021 C 283.916 261.507,285.041 298.216,263.317 342.895 C 261.742 346.132,261.422 347.068,262.014 346.698 C 262.446 346.428,262.800 346.099,262.800 345.967 C 262.800 345.835,263.790 344.672,265.000 343.382 C 266.210 342.092,267.200 340.885,267.200 340.700 C 267.200 340.515,267.605 339.944,268.100 339.432 C 269.302 338.188,269.995 337.300,271.252 335.395 C 271.831 334.518,272.776 333.260,273.352 332.600 C 273.928 331.940,274.399 331.293,274.400 331.162 C 274.400 331.031,274.850 330.401,275.400 329.762 C 275.949 329.123,276.399 328.478,276.400 328.329 C 276.400 328.179,276.632 327.819,276.915 327.529 C 277.198 327.238,277.864 326.280,278.394 325.400 C 278.925 324.520,279.648 323.530,280.001 323.200 C 280.355 322.870,280.881 322.015,281.171 321.300 C 281.460 320.585,281.816 320.000,281.961 320.000 C 282.106 320.000,282.431 319.505,282.684 318.900 C 283.179 317.716,284.452 315.526,284.835 315.200 C 285.158 314.924,290.451 305.369,291.371 303.400 C 291.782 302.520,292.227 301.710,292.359 301.600 C 292.892 301.157,293.600 299.563,293.600 298.805 C 293.600 298.362,293.780 298.000,294.000 298.000 C 294.220 298.000,294.400 297.833,294.400 297.628 C 294.400 297.423,294.918 296.118,295.551 294.728 C 297.216 291.072,299.286 286.274,300.784 282.600 C 301.501 280.840,302.236 279.040,302.418 278.600 C 302.599 278.160,302.966 277.080,303.234 276.200 C 303.733 274.562,304.883 271.294,305.837 268.800 C 306.131 268.030,306.637 266.500,306.959 265.400 C 307.282 264.300,307.918 262.192,308.373 260.716 C 308.828 259.240,309.200 257.755,309.200 257.416 C 309.200 257.077,309.380 256.800,309.600 256.800 C 309.820 256.800,309.998 256.395,309.997 255.900 C 309.992 254.777,311.303 249.471,311.651 249.200 C 311.792 249.090,312.005 248.190,312.123 247.200 C 312.402 244.863,312.955 242.035,313.940 237.920 C 314.376 236.094,315.129 231.900,315.612 228.600 C 316.096 225.300,316.661 221.880,316.867 221.000 C 317.311 219.113,318.179 187.569,317.826 186.163 L 317.585 185.200 259.035 185.200 C 204.624 185.200,200.467 185.153,200.228 184.529 C 200.087 184.161,199.992 175.956,200.017 166.297 C 200.065 147.862,199.967 146.832,198.257 147.888 C 197.612 148.287,194.216 148.261,192.900 147.848 L 191.600 147.439 191.600 114.162 C 191.600 83.302,191.551 80.867,190.925 80.626 C 190.553 80.484,185.200 80.391,179.028 80.419 L 167.806 80.472 167.543 79.536 C 166.548 75.996,167.417 65.418,168.620 66.417 C 168.945 66.686,174.418 66.788,184.558 66.714 L 200.000 66.600 200.006 106.400 C 200.009 128.290,200.110 146.570,200.232 147.023 C 200.450 147.835,207.428 148.305,208.176 147.558 C 208.309 147.424,208.412 132.372,208.405 114.109 L 208.391 80.902 209.646 80.651 C 210.336 80.513,215.824 80.400,221.842 80.400 L 232.785 80.400 232.989 79.500 C 233.101 79.005,233.150 75.938,233.097 72.685 L 233.000 66.770 217.253 66.766 C 204.707 66.764,201.398 66.655,200.975 66.232 C 200.558 65.815,200.417 62.471,200.316 50.551 C 200.246 42.218,200.037 35.085,199.851 34.700 C 199.363 33.685,82.638 33.602,82.249 34.617 M155.903 95.183 C 155.970 114.229,155.867 124.293,155.603 124.557 C 155.381 124.779,155.200 125.696,155.200 126.596 C 155.200 131.261,152.491 137.533,148.924 141.129 C 147.756 142.306,146.800 143.434,146.800 143.635 C 146.800 143.836,146.365 144.000,145.833 144.000 C 145.302 144.000,144.807 144.153,144.733 144.340 C 144.495 144.948,141.239 146.800,140.408 146.800 C 139.964 146.800,139.600 146.980,139.600 147.200 C 139.600 147.420,138.970 147.600,138.200 147.600 C 137.430 147.600,136.800 147.757,136.800 147.948 C 136.800 148.295,135.696 148.496,130.000 149.191 C 125.511 149.738,118.537 149.646,115.600 149.000 C 114.170 148.685,112.325 148.422,111.500 148.414 C 110.675 148.406,110.000 148.220,110.000 148.000 C 110.000 147.780,109.548 147.600,108.995 147.600 C 108.442 147.600,107.677 147.436,107.295 147.236 C 106.913 147.035,105.565 146.376,104.300 145.770 C 103.035 145.165,102.000 144.519,102.000 144.335 C 102.000 144.151,101.774 144.000,101.497 144.000 C 100.379 144.000,95.729 138.949,94.307 136.189 C 90.670 129.135,90.619 128.556,90.608 94.840 L 90.600 66.681 98.534 66.640 C 103.656 66.614,106.592 66.749,106.818 67.022 C 107.011 67.254,107.179 79.497,107.191 94.230 C 107.221 128.385,107.521 129.958,114.636 133.344 C 115.496 133.754,116.513 134.249,116.895 134.444 C 117.277 134.640,118.391 134.800,119.371 134.800 C 120.351 134.800,121.264 134.980,121.400 135.200 C 121.536 135.420,122.706 135.600,124.000 135.600 C 125.294 135.600,126.464 135.420,126.600 135.200 C 126.736 134.980,127.636 134.800,128.600 134.800 C 129.564 134.800,130.464 134.620,130.600 134.400 C 130.736 134.180,131.183 134.000,131.593 134.000 C 132.003 134.000,132.873 133.550,133.527 133.000 C 134.181 132.450,134.833 132.000,134.977 132.000 C 135.585 132.000,137.240 129.650,137.963 127.760 C 139.256 124.381,139.600 116.644,139.600 90.920 L 139.600 66.800 140.700 66.741 C 141.305 66.709,144.526 66.722,147.859 66.770 C 152.007 66.829,154.005 66.715,154.196 66.406 C 154.349 66.158,154.773 66.013,155.137 66.083 C 155.746 66.200,155.808 68.579,155.903 95.183 M243.447 66.621 C 243.311 66.976,243.200 85.344,243.200 107.440 L 243.200 147.614 263.700 147.474 C 283.390 147.340,286.789 147.152,289.800 146.030 C 293.714 144.573,298.203 142.230,299.247 141.100 C 299.603 140.715,300.016 140.400,300.166 140.400 C 300.512 140.400,304.400 136.295,304.400 135.930 C 304.400 135.780,304.637 135.419,304.926 135.129 C 306.420 133.628,309.326 127.220,310.608 122.600 C 310.974 121.280,311.482 119.480,311.737 118.600 C 312.031 117.583,312.190 113.649,312.173 107.800 C 312.145 97.696,311.577 93.285,309.601 87.800 C 308.769 85.490,305.764 79.959,304.756 78.881 C 304.120 78.200,303.593 77.499,303.584 77.322 C 303.558 76.800,300.110 73.200,299.635 73.200 C 299.396 73.200,299.200 73.020,299.200 72.800 C 299.200 72.580,299.012 72.400,298.783 72.400 C 298.554 72.400,298.008 72.066,297.570 71.658 C 297.132 71.250,296.061 70.575,295.191 70.158 C 294.321 69.741,293.607 69.265,293.605 69.100 C 293.602 68.935,293.180 68.800,292.667 68.800 C 292.153 68.800,291.605 68.671,291.447 68.514 C 289.858 66.924,282.343 66.311,262.347 66.138 C 245.476 65.993,243.671 66.039,243.447 66.621 M277.855 80.474 C 280.355 80.734,282.400 81.094,282.400 81.274 C 282.400 81.453,282.839 81.600,283.376 81.600 C 283.913 81.600,284.464 81.780,284.600 82.000 C 284.736 82.220,285.165 82.400,285.554 82.400 C 285.943 82.400,286.683 82.850,287.200 83.400 C 287.717 83.950,288.366 84.400,288.643 84.400 C 288.920 84.400,289.248 84.715,289.372 85.100 C 289.496 85.485,290.138 86.375,290.799 87.078 C 291.460 87.781,292.000 88.553,292.000 88.792 C 292.000 89.032,292.301 89.687,292.669 90.249 C 293.036 90.810,293.475 92.019,293.643 92.935 C 293.812 93.851,294.227 96.040,294.567 97.800 C 295.694 103.643,295.257 116.084,293.730 121.600 C 292.481 126.108,288.022 132.000,285.857 132.000 C 285.563 132.000,284.800 132.260,284.161 132.577 C 281.728 133.786,263.138 134.719,260.633 133.757 C 259.608 133.364,259.674 81.030,260.700 80.432 C 261.664 79.871,272.320 79.897,277.855 80.474 M101.908 164.801 C 104.373 166.304,104.593 168.801,102.428 170.701 C 101.312 171.680,101.142 173.200,102.149 173.200 C 102.400 173.200,102.861 173.785,103.175 174.500 C 103.489 175.215,104.010 175.998,104.334 176.239 C 104.817 176.600,104.679 176.765,103.561 177.157 C 102.264 177.613,102.147 177.573,101.073 176.318 C 97.495 172.132,97.274 171.935,96.339 172.067 C 95.489 172.187,95.388 172.428,95.278 174.600 C 95.138 177.364,94.853 177.801,93.429 177.443 L 92.400 177.185 92.400 170.859 C 92.400 167.380,92.520 164.413,92.667 164.267 C 93.352 163.582,100.595 164.000,101.908 164.801 M109.548 164.537 C 109.832 164.880,109.944 166.512,109.855 169.037 C 109.663 174.523,109.945 175.200,112.416 175.200 C 114.924 175.200,114.963 175.114,115.200 169.200 L 115.400 164.200 116.557 164.068 C 118.189 163.882,118.387 164.439,118.394 169.251 C 118.403 175.928,117.242 177.600,112.594 177.600 C 107.919 177.600,106.953 176.241,106.752 169.379 C 106.601 164.205,107.697 162.307,109.548 164.537 M131.807 164.805 C 133.047 165.571,133.797 166.958,133.357 167.669 C 133.020 168.215,131.300 168.043,130.657 167.400 C 130.327 167.070,129.774 166.800,129.429 166.800 C 129.083 166.800,128.800 166.620,128.800 166.400 C 128.800 166.180,128.361 166.000,127.824 166.000 C 127.287 166.000,126.736 166.180,126.600 166.400 C 126.464 166.620,126.034 166.800,125.644 166.800 C 123.880 166.800,123.105 171.966,124.548 174.100 C 125.936 176.152,131.200 175.409,131.200 173.161 C 131.200 172.606,130.820 172.419,129.500 172.323 C 126.073 172.075,127.178 170.623,130.900 170.483 L 134.000 170.366 134.000 173.183 C 134.000 175.420,133.877 176.000,133.400 176.000 C 133.070 176.000,132.800 176.173,132.800 176.385 C 132.800 177.681,125.427 177.892,124.039 176.635 C 123.653 176.286,123.171 175.999,122.969 175.997 C 121.453 175.987,120.342 170.528,121.346 168.019 C 122.884 164.173,128.162 162.552,131.807 164.805 M146.804 165.143 C 148.098 166.380,148.268 167.403,147.521 169.468 C 147.091 170.658,147.132 170.877,147.921 171.612 C 148.867 172.494,148.934 172.828,148.550 174.750 C 148.377 175.617,148.070 176.000,147.550 176.000 C 147.138 176.000,146.800 176.249,146.800 176.553 C 146.800 177.472,138.625 177.881,137.250 177.031 C 136.667 176.671,136.636 165.854,137.214 164.774 C 137.971 163.359,145.229 163.639,146.804 165.143 M154.779 166.404 C 156.363 169.156,156.741 169.294,157.781 167.500 C 159.620 164.328,162.800 162.744,162.800 165.000 C 162.800 165.583,162.570 166.000,162.249 166.000 C 161.945 166.000,161.472 166.544,161.196 167.209 C 160.921 167.875,160.494 168.550,160.248 168.709 C 159.070 169.474,158.000 172.358,158.000 174.767 C 158.000 179.086,155.562 178.733,155.172 174.358 C 154.965 172.029,154.332 170.118,153.596 169.600 C 153.440 169.490,153.012 168.815,152.646 168.100 C 152.279 167.385,151.833 166.800,151.654 166.800 C 151.475 166.800,151.120 166.342,150.864 165.781 C 149.425 162.621,152.922 163.178,154.779 166.404 M95.467 166.667 C 95.320 166.813,95.200 167.533,95.200 168.267 L 95.200 169.600 97.757 169.600 C 100.404 169.600,100.800 169.342,100.800 167.622 C 100.800 166.733,96.220 165.913,95.467 166.667 M139.747 168.100 C 139.917 169.671,142.715 170.198,144.540 169.003 C 146.455 167.748,145.516 166.800,142.357 166.800 L 139.607 166.800 139.747 168.100 M139.911 172.100 C 139.814 172.375,139.766 173.140,139.803 173.800 L 139.870 175.000 142.625 175.000 C 145.769 175.000,147.177 173.575,145.377 172.213 C 144.394 171.470,140.162 171.382,139.911 172.100 M265.301 194.100 C 267.626 195.405,268.323 197.669,266.481 197.930 C 265.869 198.017,265.293 197.717,264.752 197.030 C 262.556 194.238,258.800 196.342,258.800 200.364 C 258.800 203.470,261.431 206.329,262.920 204.840 C 263.162 204.598,263.655 204.400,264.016 204.400 C 264.376 204.400,264.882 203.938,265.139 203.374 C 265.664 202.221,267.699 202.093,267.904 203.200 C 268.224 204.928,265.392 206.963,262.434 207.130 C 260.720 207.227,259.600 207.134,259.600 206.894 C 259.600 206.676,259.037 206.264,258.349 205.979 C 254.599 204.426,255.118 194.400,258.948 194.400 C 259.281 194.400,259.664 194.220,259.800 194.000 C 260.152 193.430,264.240 193.504,265.301 194.100 M286.000 198.884 C 286.222 204.534,286.526 205.162,289.051 205.187 C 291.061 205.208,291.388 204.419,291.500 199.281 C 291.605 194.408,291.882 193.600,293.449 193.600 C 294.399 193.600,294.400 193.605,294.400 198.540 C 294.400 206.106,293.616 207.200,288.193 207.200 C 284.637 207.200,283.235 205.674,283.128 201.686 C 282.917 193.801,282.985 193.473,284.766 193.680 L 285.800 193.800 286.000 198.884 M305.680 194.051 C 306.846 194.299,307.932 194.704,308.094 194.951 C 308.638 195.783,308.430 199.077,307.800 199.600 C 306.987 200.274,307.046 200.666,307.995 200.915 C 309.499 201.308,309.857 204.197,308.563 205.493 C 308.293 205.764,307.996 206.212,307.904 206.488 C 307.621 207.337,298.487 207.472,297.876 206.637 C 297.163 205.661,297.224 195.134,297.949 194.261 C 298.612 193.463,302.428 193.359,305.680 194.051 M273.512 199.266 C 273.637 204.962,273.842 205.419,275.990 204.803 C 278.400 204.112,281.042 205.008,280.610 206.370 C 280.255 207.488,271.466 207.669,271.043 206.567 C 270.398 204.888,270.786 194.462,271.500 194.272 C 273.327 193.783,273.394 193.949,273.512 199.266 M300.684 196.249 C 300.528 196.405,300.400 197.043,300.400 197.667 L 300.400 198.800 303.149 198.800 L 305.899 198.800 305.635 197.500 C 305.373 196.213,301.659 195.275,300.684 196.249 M301.100 201.492 C 300.265 201.691,300.084 204.369,300.900 204.449 C 305.492 204.899,307.372 204.070,306.094 202.161 C 305.778 201.689,302.252 201.217,301.100 201.492 " stroke="none" fill="#c55b13" fill-rule="evenodd"></path></g></svg>